<svg xmlns="http://www.w3.org/2000/svg" width="156" height="46" fill="none" xmlns:v="https://vecta.io/nano"><path d="M149.755 45.355H5.865a5.29 5.29 0 0 1-5.292-5.311V5.885A5.29 5.29 0 0 1 5.865.574h143.89a5.29 5.29 0 0 1 5.293 5.31v34.231c0 2.871-2.361 5.239-5.293 5.239z" fill="#000"/><path d="M51.778 13.062l-.644 2.153h-1.43l2.432-7.535h1.788l2.432 7.535h-1.502l-.715-2.153h-2.36zm2.217-1.005l-.572-1.866c-.143-.431-.286-1.005-.358-1.435-.143.431-.215.933-.358 1.435l-.572 1.866h1.859zm4.434-2.296l.858 2.799.358 1.364c.072-.431.215-.861.358-1.364l.858-2.799h1.43l-2.074 5.454h-1.359l-2.002-5.454h1.573zm9.44 4.162c0 .502 0 1.005.072 1.292h-1.216l-.072-.574c-.358.431-.858.718-1.573.718-1.073 0-1.716-.789-1.716-1.65 0-1.364 1.216-2.081 3.218-2.081v-.072c0-.359-.143-.933-1.073-.933-.501 0-1.073.144-1.43.431l-.429-.933c.429-.215 1.073-.502 1.931-.502 1.716 0 2.217 1.076 2.217 2.296v2.009h.072zm-1.359-1.364c-1.001 0-1.931.215-1.931 1.005a.75.75 0 0 0 .787.789c.572 0 .93-.359 1.073-.718v-.287-.789h.072zm3.933-3.588c-.429 0-.787-.359-.787-.718 0-.431.286-.718.787-.718s.787.359.787.718-.286.718-.787.718zm-.644 6.243V9.76h1.359v5.454h-1.359zm3.36-7.965h1.359v7.966h-1.359V7.249zm7.584 6.674c0 .502 0 1.005.072 1.292h-1.216l-.072-.574c-.358.431-.858.718-1.573.718-1.073 0-1.716-.789-1.716-1.65 0-1.364 1.216-2.081 3.218-2.081v-.072c0-.359-.143-.933-1.073-.933-.501 0-1.073.144-1.43.431l-.286-.861c.429-.215 1.073-.502 1.931-.502 1.716 0 2.217 1.076 2.217 2.296v1.938h-.072zm-1.359-1.364c-1.001 0-1.931.215-1.931 1.005a.75.75 0 0 0 .787.789c.572 0 .93-.359 1.073-.718v-.287-.789h.072zm3.289-5.31h1.359v3.229a2.03 2.03 0 0 1 1.716-.861c1.359 0 2.288 1.076 2.288 2.799 0 1.938-1.216 2.942-2.431 2.942-.715 0-1.359-.287-1.716-.933l-.072.789h-1.144l.072-1.507V7.249h-.072zm1.359 5.741v.359c.143.574.644.933 1.216.933.858 0 1.359-.718 1.359-1.794 0-.933-.429-1.722-1.359-1.722-.572 0-1.073.431-1.216 1.005 0 .072-.072.215-.072.359v.861h.072zm5.649-5.741h1.359v7.966h-1.359V7.249zm4.363 5.597c0 1.005.787 1.435 1.645 1.435.644 0 1.073-.072 1.502-.215l.215.933c-.501.215-1.144.359-1.931.359-1.788 0-2.789-1.076-2.789-2.727 0-1.507.93-2.942 2.646-2.942 1.788 0 2.36 1.435 2.36 2.655 0 .287 0 .431-.072.574h-3.576v-.072zm2.36-.933c0-.502-.215-1.364-1.144-1.364-.858 0-1.216.789-1.287 1.364h2.432zm8.082 3.445c-1.501 0-2.717-1.076-2.717-2.799 0-1.794 1.144-2.871 2.789-2.871s2.718 1.148 2.718 2.799c0 1.938-1.431 2.871-2.79 2.871zm0-1.005c.787 0 1.359-.789 1.359-1.866 0-.861-.357-1.866-1.287-1.866-1.001 0-1.359.933-1.359 1.866-.071 1.077.501 1.866 1.287 1.866zm4.362-2.942l-.072-1.651h1.216l.071.789c.215-.431.859-.933 1.717-.933.93 0 1.931.646 1.931 2.368v3.229h-1.359v-3.086c0-.789-.286-1.363-1.073-1.363-.572 0-.93.359-1.073.789-.071.144-.071.287-.071.431v3.229h-1.359V11.41h.072zm11.297-3.086V9.76h1.288v1.005h-1.288v2.368c0 .646.143 1.005.715 1.005.215 0 .358 0 .501-.072v1.077c-.215.072-.572.143-1.001.143-.501 0-.93-.143-1.216-.431s-.429-.789-.429-1.507v-2.584H118V9.76h.786V8.755l1.359-.431zm2.791-1.076h1.359v3.229c.143-.287.429-.502.715-.646s.572-.215.93-.215c.93 0 1.931.646 1.931 2.368v3.229h-1.359v-3.086c0-.789-.286-1.363-1.073-1.363-.5 0-.929.359-1.072.789-.072.144-.072.287-.072.431v3.301h-1.359V7.249zm7.868 5.597c0 1.005.787 1.435 1.645 1.435.643 0 1.072-.072 1.502-.215l.214.933c-.5.215-1.144.359-1.931.359-1.788 0-2.789-1.076-2.789-2.727 0-1.507.93-2.942 2.646-2.942 1.788 0 2.36 1.435 2.36 2.655 0 .287 0 .431-.071.574h-3.576v-.072zm2.36-.933c0-.502-.215-1.364-1.144-1.364-.859 0-1.216.789-1.288 1.364h2.432zM34.757 22.534c0-3.732 3.075-5.526 3.218-5.669-1.716-2.583-4.434-2.871-5.435-2.942-2.288-.215-4.505 1.364-5.65 1.364-1.216 0-2.932-1.364-4.863-1.292-2.503.072-4.791 1.507-6.079 3.732-2.646 4.521-.644 11.267 1.859 14.927 1.287 1.794 2.718 3.803 4.648 3.732 1.859-.072 2.575-1.22 4.792-1.22s2.932 1.22 4.863 1.148c2.002 0 3.29-1.794 4.505-3.66 1.43-2.081 2.002-4.09 2.074-4.234-.072.072-3.933-1.435-3.933-5.885zm-3.72-10.98c1.001-1.292 1.716-3.014 1.502-4.736-1.43.072-3.29 1.005-4.363 2.225-.93 1.076-1.788 2.871-1.573 4.593 1.716.144 3.361-.861 4.434-2.081zm30.825 24.542h-2.646l-1.43-4.521H52.78l-1.287 4.521h-2.575l4.935-15.357h3.075l4.935 15.357zm-4.506-6.459l-1.287-4.019c-.143-.431-.429-1.363-.787-2.87h-.072l-.715 2.871-1.287 4.019h4.148zm17.235.79c0 1.866-.501 3.373-1.502 4.449-.93 1.005-2.074 1.435-3.361 1.435-1.43 0-2.503-.502-3.147-1.579h-.071v5.813h-2.432V28.633l-.072-3.66h2.145l.143 1.722h.072c.787-1.292 2.074-2.009 3.719-2.009 1.287 0 2.36.502 3.29 1.579.715 1.076 1.216 2.44 1.216 4.162zm-2.503.072c0-1.076-.215-1.938-.715-2.655s-1.216-1.076-2.145-1.076c-.572 0-1.144.215-1.645.574-.501.431-.787.933-1.001 1.579l-.143.718v1.866c0 .789.215 1.507.715 2.009.501.574 1.144.861 1.931.861.93 0 1.645-.359 2.146-1.076.572-.718.858-1.651.858-2.799zm15.164-.072c0 1.866-.501 3.373-1.502 4.449-.93 1.005-2.002 1.435-3.361 1.435-1.43 0-2.503-.502-3.147-1.579h-.072v5.813h-2.431V28.633l-.072-3.66h2.146l.143 1.722h.072c.787-1.292 2.074-2.009 3.719-2.009 1.287 0 2.36.502 3.29 1.579.787 1.076 1.216 2.44 1.216 4.162zm-2.503.072c0-1.076-.215-1.938-.715-2.655s-1.216-1.076-2.145-1.076c-.572 0-1.144.215-1.645.574-.501.431-.787.933-.93 1.579l-.143.718v1.866c0 .789.215 1.507.715 2.009.501.574 1.144.861 1.931.861.93 0 1.645-.359 2.145-1.076.572-.718.787-1.651.787-2.799zm16.732 1.292c0 1.292-.429 2.368-1.358 3.229-1.002.933-2.361 1.363-4.148 1.363-1.645 0-3.004-.287-4.005-.933l.572-2.081c1.073.646 2.289 1.005 3.576 1.005.93 0 1.645-.215 2.145-.646s.787-1.005.787-1.65a2.11 2.11 0 0 0-.644-1.579c-.429-.431-1.144-.789-2.145-1.22-2.718-1.005-4.005-2.512-4.005-4.378a3.85 3.85 0 0 1 1.43-3.086c.93-.789 2.217-1.22 3.719-1.22 1.43 0 2.575.215 3.504.718l-.643 2.009c-.859-.502-1.86-.718-2.933-.718-.858 0-1.573.215-2.002.646a1.77 1.77 0 0 0-.644 1.363c0 .574.215 1.076.715 1.507.429.359 1.144.789 2.217 1.22 1.287.502 2.288 1.148 2.933 1.866.643.574.929 1.507.929 2.584zm8.154-4.952h-2.717v5.382c0 1.363.5 2.081 1.43 2.081a4.32 4.32 0 0 0 1.073-.144l.071 1.866c-.5.215-1.144.287-1.931.287-1.001 0-1.716-.287-2.288-.861s-.787-1.579-.787-3.014v-5.597h-1.645v-1.866h1.645v-2.009l2.432-.718v2.727h2.717v1.866zm12.229 3.588c0 1.722-.501 3.086-1.431 4.234-1.001 1.148-2.36 1.722-4.076 1.722-1.645 0-2.932-.574-3.862-1.651s-1.43-2.44-1.43-4.09c0-1.722.5-3.157 1.502-4.234s2.36-1.651 4.004-1.651 2.933.574 3.934 1.651c.858 1.005 1.359 2.368 1.359 4.019zm-2.575.072c0-1.005-.215-1.866-.644-2.655-.5-.861-1.215-1.363-2.217-1.363s-1.716.431-2.217 1.363c-.429.718-.643 1.651-.643 2.655s.214 1.866.643 2.655c.501.861 1.288 1.292 2.217 1.292s1.645-.431 2.217-1.364c.429-.646.644-1.507.644-2.583zm10.513-3.373c-.214-.072-.5-.072-.786-.072-.859 0-1.502.359-2.003 1.005-.429.574-.643 1.292-.643 2.225v5.813h-2.432V28.49l-.072-3.516h2.146l.071 2.153h.072c.286-.718.644-1.292 1.216-1.722s1.144-.574 1.788-.574c.214 0 .429 0 .643.072v2.225zm11.013 2.871c0 .431 0 .789-.072 1.148h-7.366c0 1.077.357 1.938 1.073 2.512.643.502 1.43.789 2.431.789 1.073 0 2.074-.143 3.004-.502l.357 1.722c-1.072.431-2.288.718-3.718.718-1.717 0-3.076-.502-4.005-1.507-1.002-1.005-1.502-2.368-1.502-4.09 0-1.651.429-3.086 1.359-4.162.929-1.22 2.217-1.794 3.862-1.794 1.573 0 2.789.574 3.647 1.794.572.861.93 2.009.93 3.373zm-2.36-.646c0-.718-.144-1.363-.501-1.866-.429-.718-1.073-1.005-1.931-1.005-.787 0-1.43.359-1.931 1.005-.429.502-.644 1.148-.715 1.938h5.078v-.072z" fill="#fff"/></svg>