<svg xmlns="http://www.w3.org/2000/svg" width="159" height="66" fill="none" xmlns:v="https://vecta.io/nano"><path d="M29.015 8.406c-1.861 2.202-4.839 3.939-7.817 3.691-.372-2.978 1.086-6.142 2.792-8.096C25.851 1.737 29.108.124 31.744 0c.31 3.102-.899 6.142-2.73 8.406zm2.699 4.281c-4.311-.248-8.003 2.45-10.05 2.45-2.078 0-5.211-2.326-8.623-2.264-4.436.062-8.561 2.574-10.825 6.576-4.653 8.003-1.21 19.852 3.288 26.365 2.202 3.226 4.839 6.762 8.313 6.638 3.288-.124 4.591-2.14 8.561-2.14 4.001 0 5.149 2.14 8.623 2.078 3.598-.062 5.862-3.226 8.065-6.452 2.512-3.66 3.536-7.227 3.598-7.413-.062-.062-6.948-2.699-7.01-10.639-.062-6.638 5.428-9.802 5.676-9.988-3.102-4.591-7.941-5.087-9.616-5.211zm24.908-8.995v48.357h7.506V35.516h10.391c9.492 0 16.161-6.514 16.161-15.943S84.134 3.691 74.766 3.691H56.621zm7.506 6.328h8.654c6.514 0 10.236 3.474 10.236 9.585s-3.722 9.616-10.267 9.616h-8.623v-19.2zm40.262 42.402c4.714 0 9.088-2.388 11.073-6.173h.155v5.8h6.948v-24.07c0-6.979-5.583-11.477-14.175-11.477-7.972 0-13.865 4.56-14.082 10.825h6.762c.558-2.978 3.319-4.932 7.103-4.932 4.591 0 7.165 2.14 7.165 6.079v2.668l-9.367.558c-8.717.527-13.431 4.094-13.431 10.298 0 6.266 4.87 10.422 11.849 10.422zm2.016-5.738c-4.001 0-6.545-1.923-6.545-4.87 0-3.04 2.45-4.808 7.134-5.087l8.344-.527v2.73c0 4.529-3.846 7.755-8.933 7.755zM131.84 65.2c7.32 0 10.763-2.792 13.772-11.26l13.182-36.973h-7.63l-8.84 28.568h-.155l-8.84-28.568h-7.848l12.717 35.206-.682 2.14c-1.148 3.629-3.009 5.025-6.328 5.025-.589 0-1.737-.062-2.202-.124v5.8c.434.124 2.295.186 2.854.186z" fill="#000"/></svg>