<svg xmlns="http://www.w3.org/2000/svg" width="156" height="46" fill="none" xmlns:v="https://vecta.io/nano"><path d="M149.755 45.355H5.865a5.29 5.29 0 0 1-5.292-5.31V5.885A5.29 5.29 0 0 1 5.865.575h143.89a5.29 5.29 0 0 1 5.293 5.31v34.231c0 2.871-2.361 5.239-5.293 5.239z" fill="#000"/><path d="M78.525 25.116c-2.718 0-4.935 2.081-4.935 4.88s2.217 4.88 4.935 4.88 4.935-2.081 4.935-4.88c-.072-2.799-2.217-4.88-4.935-4.88zm0 7.894c-1.502 0-2.789-1.22-2.789-2.942 0-1.794 1.287-2.942 2.789-2.942s2.789 1.22 2.789 2.942c-.072 1.722-1.359 2.942-2.789 2.942zm-10.727-7.894c-2.718 0-4.935 2.081-4.935 4.88s2.217 4.88 4.935 4.88 4.935-2.081 4.935-4.88-2.217-4.88-4.935-4.88zm0 7.894c-1.502 0-2.789-1.22-2.789-2.942 0-1.794 1.287-2.942 2.789-2.942s2.789 1.22 2.789 2.942-1.287 2.942-2.789 2.942zm-12.73-6.387v2.081h4.935c-.143 1.148-.572 2.009-1.144 2.655-.715.718-1.859 1.507-3.862 1.507-3.075 0-5.435-2.44-5.435-5.526s2.36-5.526 5.435-5.526c1.645 0 2.861.646 3.719 1.507l1.43-1.435c-1.216-1.22-2.861-2.081-5.221-2.081-4.219 0-7.724 3.445-7.724 7.607 0 4.234 3.504 7.607 7.724 7.607 2.288 0 3.933-.718 5.292-2.153 1.359-1.364 1.788-3.301 1.788-4.88a6.46 6.46 0 0 0-.143-1.292h-6.794v-.072zm52.135 1.651c-.429-1.077-1.645-3.158-4.219-3.158-2.503 0-4.649 2.009-4.649 4.88 0 2.727 2.074 4.88 4.863 4.88 2.217 0 3.505-1.364 4.077-2.153l-1.645-1.148c-.572.789-1.287 1.363-2.432 1.363-1.072 0-1.859-.502-2.36-1.507l6.508-2.727-.143-.431zm-6.722 1.579c-.072-1.866 1.43-2.871 2.574-2.871.859 0 1.574.431 1.788 1.076l-4.362 1.794zm-5.292 4.808h2.146V20.236h-2.146v14.424zm-3.504-8.468h-.072c-.501-.574-1.43-1.076-2.575-1.076-2.431 0-4.72 2.153-4.72 4.952 0 2.727 2.217 4.88 4.72 4.88 1.144 0 2.074-.502 2.575-1.148h.072v.718c0 1.866-1.001 2.871-2.646 2.871-1.287 0-2.145-.933-2.431-1.722l-1.859.789c.572 1.292 1.931 2.871 4.363 2.871 2.503 0 4.648-1.507 4.648-5.095v-8.827h-2.074v.789zm-2.503 6.817c-1.502 0-2.718-1.22-2.718-2.942s1.216-3.014 2.718-3.014c1.43 0 2.646 1.292 2.646 3.014s-1.144 2.942-2.646 2.942zm28.035-12.774h-5.15v14.424h2.146v-5.454h3.004c2.36 0 4.72-1.722 4.72-4.449 0-2.799-2.289-4.521-4.72-4.521zm.071 6.961h-3.075v-4.952h3.075c1.573 0 2.503 1.364 2.503 2.44 0 1.148-.858 2.512-2.503 2.512zm13.302-2.081c-1.573 0-3.147.718-3.862 2.225l1.931.789c.429-.789 1.144-1.076 1.931-1.076 1.144 0 2.217.646 2.289 1.866v.143c-.358-.215-1.216-.574-2.217-.574-2.074 0-4.148 1.148-4.148 3.229 0 1.938 1.716 3.158 3.575 3.158 1.431 0 2.217-.646 2.718-1.435h.072v1.148h2.073v-5.526c0-2.512-1.93-3.947-4.362-3.947zm-.286 7.894c-.715 0-1.716-.359-1.716-1.22 0-1.148 1.215-1.507 2.288-1.507.93 0 1.359.215 1.931.502-.143 1.292-1.287 2.225-2.503 2.225zm12.158-7.607l-2.432 6.243h-.071l-2.575-6.243h-2.288l3.861 8.755-2.217 4.88h2.217l5.936-13.635h-2.431zm-19.31 9.257h2.146V20.236h-2.146v14.424z" fill="#fff"/><path d="M12.158 8.754c-.358.359-.501.933-.501 1.651v25.476c0 .718.214 1.292.501 1.651l.072.072 14.232-14.353v-.143-.144L12.23 8.683l-.072.072z" fill="#5bc9f4"/><path d="M31.18 28.059l-4.72-4.736v-.215-.143l4.72-4.736.072.072 5.65 3.229c1.573.933 1.573 2.44 0 3.301l-5.65 3.229h-.072z" fill="url(#A)"/><path d="M31.324 27.987l-4.863-4.88L12.158 37.46c.501.574 1.43.646 2.36.072l16.806-9.545z" fill="url(#B)"/><path d="M31.324 18.227L14.518 8.683c-1.001-.574-1.859-.502-2.36.072l14.303 14.353 4.863-4.88z" fill="url(#C)"/><path d="M52.849 9.545c-.429-.359-1.001-.646-1.645-.646-1.43 0-2.503 1.148-2.503 2.583s1.073 2.583 2.503 2.583c1.216 0 2.074-.718 2.145-1.866H51.49v-.789h2.932c0 2.368-1.287 3.516-3.218 3.516s-3.433-1.579-3.433-3.445c0-1.938 1.502-3.516 3.433-3.516.858 0 1.716.359 2.288.861l-.644.718zm6.867-1.436v.861H56.64v2.153h2.718v.861H56.64v2.081h3.218v.861h-4.076V8.109h3.933zm5.933 0v.861h-2.074v5.956h-.93V8.97h-2.074v-.861h5.078zm4.363 0v6.817h-.93V8.109h.93zm6.223 0v.861h-2.074v5.956h-.93V8.97h-2.074v-.861h5.078zm6.436-.071c1.931 0 3.433 1.579 3.433 3.516s-1.502 3.445-3.433 3.445-3.433-1.579-3.433-3.445c0-1.938 1.502-3.516 3.433-3.516zm0 6.1c1.43 0 2.503-1.148 2.503-2.584s-1.073-2.583-2.503-2.583-2.503 1.148-2.503 2.583 1.073 2.584 2.503 2.584zm8.869.788l-3.075-5.095v5.095h-.93V8.109h.93l3.075 5.095V8.109h.93v6.818h-.93z" fill="#fff"/><defs><linearGradient id="A" x1="35.893" y1="23.099" x2="8.083" y2="23.099" gradientUnits="userSpaceOnUse"><stop stop-color="#fee000"/><stop offset=".194" stop-color="#fccf0b"/><stop offset=".547" stop-color="#fab318"/><stop offset=".828" stop-color="#f9a21b"/><stop offset="1" stop-color="#f99b1c"/></linearGradient><linearGradient id="B" x1="28.677" y1="25.745" x2="2.431" y2="51.901" gradientUnits="userSpaceOnUse"><stop stop-color="#ef4547"/><stop offset="1" stop-color="#c6186d"/></linearGradient><linearGradient id="C" x1="2.405" y1="-5.912" x2="23.834" y2="15.444" gradientUnits="userSpaceOnUse"><stop stop-color="#279e6f"/><stop offset=".317" stop-color="#4dab6d"/><stop offset=".74" stop-color="#6aba6a"/><stop offset="1" stop-color="#74c169"/></linearGradient></defs></svg>