<svg xmlns="http://www.w3.org/2000/svg" width="104" height="89" fill="none" xmlns:v="https://vecta.io/nano"><g clip-path="url(#A)"><path d="M94.455 17.131c-10.258-5.921-23.375-2.403-29.303 7.855L50.209 50.872c-4.324 7.475 1.242 10.087 7.449 13.808l14.379 8.299c4.869 2.809 11.088 1.141 13.897-3.721l15.361-26.602c5.161-8.939 2.099-20.363-6.84-25.524z" fill="#ea4335"/><path d="M77.547 27.845l-14.379-8.299c-7.937-4.406-12.432-4.698-15.691.482L26.271 56.755c-5.922 10.251-2.397 23.362 7.855 29.271 8.939 5.16 20.364 2.098 25.524-6.841l21.612-37.437c2.821-4.869 1.154-11.095-3.715-13.903z" fill="#fbbc04"/><path d="M80.314 8.965L70.215 3.133C59.044-3.315 44.761.508 38.313 11.679L19.085 44.982c-2.84 4.913-1.154 11.202 3.76 14.036l11.31 6.53c5.585 3.227 12.724 1.312 15.951-4.273L72.073 23.23c4.552-7.88 14.626-10.581 22.506-6.029L80.314 8.965z" fill="#34a853"/><path d="M41.045 21.207l-10.917-6.289c-4.869-2.802-11.088-1.141-13.897 3.715L3.133 41.266c-6.448 11.139-2.625 25.391 8.546 31.82l8.312 4.786 10.08 5.807 4.374 2.517c-7.766-5.198-10.232-15.615-5.484-23.819l3.392-5.858 12.42-21.46c2.802-4.843 1.135-11.05-3.728-13.852z" fill="#4285f4"/></g><defs><clipPath id="A"><path fill="#fff" d="M0 0h104v88.563H0z"/></clipPath></defs></svg>