<?xml version="1.0" encoding="utf-8"?><!-- Generator: Adobe Illustrator 21.0.0, SVG Export Plug-In . SVG Version: 6.00 Build 0)  --><svg version="1.1" id="Layer_1" xmlns="http://www.w3.org/2000/svg" xmlns:xlink="http://www.w3.org/1999/xlink" x="0px" y="0px"	 viewBox="0 0 724 319.7" style="enable-background:new 0 0 724 319.7;" xml:space="preserve"><style type="text/css">	.st0{fill-rule:evenodd;clip-rule:evenodd;fill:#ED1C24;}	.st1{fill-rule:evenodd;clip-rule:evenodd;fill:#034EA2;}	.st2{fill:#034EA2;}	.st3{fill:#ED1C24;}</style><g id="XMLID_181_">	<polygon id="XMLID_202_" class="st0" points="95.1,125.6 93.7,124.7 92.2,123.8 90.8,123 89.3,122.3 87.9,121.6 86.4,121 85,120.4 		83.6,119.9 82.2,119.5 80.7,119.1 79.3,118.8 77.9,118.5 76.5,118.3 75.2,118.2 73.8,118.1 72.4,118.1 71,118.1 69.7,118.2 		68.3,118.3 67,118.5 65.6,118.8 64.3,119.1 63,119.5 61.7,119.9 60.4,120.4 59.1,120.9 57.8,121.5 56.5,122.2 55.2,122.9 		53.9,123.6 52.7,124.5 51.4,125.3 49.7,126.9 48,128.5 46.6,130.1 45.2,131.8 43.9,133.4 42.8,135.1 41.8,136.8 40.9,138.6 		40.1,140.3 39.5,142 38.9,143.8 38.5,145.6 38.1,147.3 37.9,149.1 37.8,150.9 37.8,152.6 37.9,154.4 38.1,156.1 38.4,157.9 		38.8,159.6 39.3,161.3 39.9,163 40.6,164.6 41.4,166.3 42.3,167.9 43.3,169.5 44.3,171 45.5,172.5 46.7,174 48,175.4 49.4,176.8 		50.9,178.2 52.3,179.1 53.7,179.9 55.1,180.7 56.5,181.4 58,182.1 59.4,182.7 60.8,183.2 62.3,183.7 63.7,184.1 65.1,184.5 		66.6,184.7 68,185 69.5,185.1 70.9,185.2 72.3,185.3 73.7,185.2 75.2,185.1 76.6,185 78,184.8 79.4,184.5 80.8,184.2 82.2,183.8 		83.5,183.4 84.9,182.8 86.2,182.3 87.6,181.6 88.9,180.9 90.2,180.2 91.5,179.4 92.8,178.5 94,177.5 95.3,176.5 94,177 92.8,177.5 		91.5,177.9 90.3,178.3 89.1,178.6 87.9,178.9 86.7,179.1 85.4,179.3 84.2,179.5 83,179.6 81.8,179.7 80.6,179.8 79.4,179.8 		78.3,179.7 77.1,179.6 76,179.5 74.8,179.3 73.6,179.1 72.5,178.8 71.4,178.5 70.3,178.1 69.2,177.7 68.1,177.3 67,176.8 		65.9,176.2 64.9,175.7 63.8,175 62.8,174.3 61.8,173.6 60.8,172.8 59.8,172 58.8,171.1 57.9,170 56.9,168.9 56,167.7 55.2,166.5 		54.5,165.4 53.8,164.2 53.1,163 52.5,161.7 52.1,160.5 51.6,159.3 51.2,158 50.9,156.7 50.6,155.5 50.4,154.2 50.3,152.9 		50.2,151.6 50.3,150.3 50.3,149 50.4,147.7 50.7,146.4 50.9,145.1 51.3,143.7 51.7,142.4 52.1,141.1 52.7,139.8 53.3,138.5 		54,137.2 54.7,135.9 55.6,134.6 56.5,133.4 57.4,132.1 58.5,130.9 59.4,130 60.3,129.1 61.3,128.3 62.2,127.6 63.2,126.9 		64.2,126.2 65.2,125.6 66.2,125.1 67.3,124.6 68.3,124.1 69.4,123.7 70.5,123.3 71.6,123 72.7,122.8 73.8,122.6 74.9,122.4 		76.1,122.3 77.3,122.2 78.4,122.2 79.7,122.2 80.9,122.2 82.1,122.3 83.3,122.5 84.6,122.7 85.9,122.9 87.2,123.1 88.5,123.5 		89.8,123.8 91.1,124.2 92.4,124.6 93.8,125.1 	"/>	<polygon id="XMLID_201_" class="st0" points="96.6,132 95.6,131.3 94.5,130.7 93.5,130.1 92.4,129.6 91.4,129.1 90.4,128.7 		89.3,128.3 88.3,127.9 87.3,127.6 86.3,127.3 85.3,127.1 84.3,126.9 83.3,126.7 82.3,126.6 81.3,126.6 80.3,126.5 79.3,126.6 		78.3,126.7 77.4,126.7 76.4,126.9 75.5,127.1 74.5,127.3 73.5,127.6 72.6,127.9 71.7,128.2 70.7,128.6 69.8,129 68.9,129.5 		67.9,130 67,130.6 66.1,131.2 65.2,131.8 64,132.9 62.8,134 61.7,135.2 60.8,136.4 59.9,137.6 59,138.8 58.3,140 57.7,141.3 		57.1,142.5 56.7,143.8 56.3,145 55.9,146.3 55.7,147.6 55.6,148.8 55.5,150.1 55.5,151.4 55.5,152.6 55.7,153.9 55.9,155.1 		56.2,156.4 56.6,157.6 57,158.8 57.5,160 58.1,161.2 58.7,162.3 59.4,163.4 60.1,164.6 61,165.7 61.9,166.7 62.8,167.7 63.8,168.8 		64.9,169.7 65.9,170.4 66.9,171 67.9,171.5 68.9,172.1 69.9,172.5 71,173 72,173.3 73,173.7 74.1,174 75.1,174.2 76.1,174.4 		77.2,174.6 78.2,174.7 79.2,174.8 80.2,174.8 81.3,174.8 82.3,174.7 83.3,174.6 84.3,174.5 85.3,174.3 86.3,174 87.3,173.8 		88.3,173.4 89.3,173.1 90.2,172.6 91.2,172.2 92.1,171.7 93.1,171.1 94,170.6 94.9,169.9 95.8,169.3 96.7,168.5 95.8,168.9 		94.9,169.2 94,169.5 93.2,169.8 92.3,170 91.4,170.2 90.5,170.4 89.7,170.5 88.8,170.7 87.9,170.7 87.1,170.8 86.2,170.8 		85.3,170.8 84.5,170.8 83.7,170.7 82.8,170.6 82,170.5 81.2,170.4 80.4,170.2 79.6,170 78.8,169.7 78,169.4 77.2,169.1 76.4,168.7 		75.7,168.3 74.9,167.9 74.2,167.4 73.4,167 72.7,166.4 72,165.9 71.3,165.3 70.6,164.6 69.9,163.8 69.2,163 68.5,162.2 68,161.4 		67.4,160.5 66.9,159.7 66.5,158.8 66.1,157.9 65.7,157 65.4,156.1 65.1,155.2 64.9,154.3 64.7,153.4 64.5,152.5 64.4,151.6 		64.4,150.6 64.4,149.7 64.4,148.8 64.5,147.8 64.7,146.9 64.9,145.9 65.1,145 65.4,144.1 65.8,143.1 66.1,142.2 66.6,141.2 		67.1,140.3 67.6,139.4 68.2,138.5 68.9,137.6 69.6,136.6 70.3,135.8 71,135.1 71.6,134.5 72.3,133.9 73,133.4 73.7,132.9 		74.4,132.4 75.1,132 75.9,131.6 76.6,131.2 77.4,130.9 78.1,130.6 78.9,130.4 79.7,130.1 80.5,130 81.3,129.8 82.1,129.7 		82.9,129.6 83.8,129.5 84.6,129.5 85.5,129.5 86.4,129.6 87.3,129.6 88.1,129.7 89,129.9 90,130 90.9,130.2 91.8,130.4 92.8,130.7 		93.7,131 94.7,131.3 95.6,131.6 	"/>	<polygon id="XMLID_200_" class="st0" points="99.4,140.3 98.9,140 98.3,139.6 97.8,139.4 97.3,139.1 96.8,138.8 96.2,138.6 		95.8,138.4 95.2,138.2 94.7,138.1 94.2,137.9 93.7,137.8 93.2,137.7 92.7,137.7 92.2,137.6 91.7,137.6 91.2,137.6 90.7,137.6 		90.2,137.6 89.7,137.7 89.2,137.7 88.8,137.8 88.3,137.9 87.8,138.1 87.3,138.2 86.8,138.4 86.4,138.6 85.9,138.8 85.5,139.1 		85,139.3 84.5,139.6 84.1,139.9 83.6,140.2 83,140.8 82.4,141.3 81.9,141.9 81.4,142.5 80.9,143.1 80.5,143.7 80.1,144.3 79.8,145 		79.5,145.6 79.3,146.2 79.1,146.9 78.9,147.5 78.8,148.2 78.7,148.8 78.7,149.4 78.7,150.1 78.7,150.7 78.8,151.3 78.9,151.9 		79.1,152.6 79.2,153.2 79.5,153.8 79.7,154.4 80,155 80.3,155.6 80.7,156.2 81,156.7 81.5,157.2 81.9,157.8 82.4,158.3 82.9,158.8 		83.4,159.3 83.9,159.6 84.4,159.9 85,160.2 85.5,160.5 86,160.7 86.5,160.9 87,161.1 87.5,161.3 88.1,161.4 88.6,161.6 89.1,161.7 		89.6,161.7 90.1,161.8 90.7,161.8 91.2,161.8 91.7,161.8 92.2,161.8 92.7,161.8 93.2,161.7 93.7,161.6 94.2,161.5 94.7,161.3 		95.2,161.2 95.7,161 96.2,160.8 96.7,160.5 97.1,160.3 97.6,160 98.1,159.7 98.5,159.4 99,159.1 99.5,158.7 99,158.9 98.6,159 		98.1,159.2 97.7,159.3 97.2,159.4 96.8,159.5 96.3,159.6 95.9,159.7 95.5,159.8 95,159.8 94.6,159.8 94.2,159.9 93.7,159.9 		93.3,159.8 92.9,159.8 92.5,159.8 92.1,159.7 91.6,159.6 91.2,159.5 90.8,159.4 90.4,159.3 90,159.1 89.6,159 89.2,158.8 		88.9,158.6 88.5,158.4 88.1,158.2 87.7,157.9 87.4,157.6 87,157.4 86.7,157 86.3,156.7 85.9,156.3 85.6,155.9 85.3,155.5 85,155.1 		84.7,154.7 84.5,154.2 84.2,153.8 84,153.3 83.9,152.9 83.7,152.4 83.5,152 83.4,151.5 83.3,151.1 83.3,150.6 83.2,150.2 		83.2,149.7 83.2,149.2 83.2,148.7 83.3,148.3 83.3,147.8 83.4,147.3 83.6,146.8 83.7,146.4 83.9,145.9 84.1,145.4 84.3,145 		84.5,144.5 84.8,144 85.1,143.6 85.5,143.1 85.8,142.7 86.2,142.2 86.5,141.9 86.8,141.5 87.2,141.3 87.5,141 87.9,140.7 		88.2,140.5 88.6,140.3 88.9,140.1 89.3,139.9 89.7,139.8 90.1,139.6 90.5,139.5 90.9,139.4 91.3,139.3 91.7,139.2 92.1,139.1 		92.5,139.1 93,139.1 93.4,139 93.8,139.1 94.3,139.1 94.7,139.1 95.1,139.2 95.6,139.2 96.1,139.3 96.5,139.4 97,139.5 97.5,139.6 		97.9,139.8 98.4,139.9 98.9,140.1 	"/>	<polygon id="XMLID_199_" class="st0" points="99,136 98.2,135.6 97.4,135.1 96.7,134.7 95.9,134.3 95.1,133.9 94.4,133.6 		93.6,133.3 92.8,133 92.1,132.8 91.3,132.6 90.6,132.4 89.8,132.3 89.1,132.2 88.3,132.1 87.6,132 86.9,132 86.2,132 85.4,132.1 		84.7,132.2 84,132.3 83.3,132.4 82.6,132.6 81.9,132.8 81.2,133 80.5,133.3 79.8,133.5 79.1,133.9 78.4,134.2 77.7,134.6 77,135 		76.4,135.4 75.7,135.9 74.8,136.7 73.9,137.6 73.1,138.4 72.4,139.3 71.7,140.2 71.1,141.1 70.6,142 70.1,142.9 69.7,143.9 		69.3,144.8 69,145.7 68.8,146.7 68.6,147.6 68.5,148.6 68.4,149.5 68.4,150.5 68.5,151.4 68.6,152.3 68.8,153.3 69,154.2 		69.2,155.1 69.6,156 69.9,156.9 70.3,157.7 70.8,158.6 71.3,159.4 71.9,160.3 72.5,161.1 73.2,161.9 73.9,162.6 74.6,163.4 		75.4,164.1 76.2,164.6 76.9,165 77.7,165.4 78.4,165.8 79.2,166.2 79.9,166.5 80.7,166.8 81.5,167 82.2,167.3 83,167.4 83.8,167.6 		84.5,167.7 85.3,167.8 86.1,167.9 86.8,167.9 87.6,167.9 88.3,167.8 89.1,167.7 89.9,167.6 90.6,167.5 91.4,167.3 92.1,167.1 		92.8,166.8 93.5,166.6 94.3,166.3 95,165.9 95.7,165.6 96.4,165.2 97.1,164.7 97.7,164.2 98.4,163.7 99.1,163.2 98.4,163.5 		97.8,163.7 97.1,163.9 96.4,164.1 95.8,164.3 95.1,164.5 94.5,164.6 93.8,164.7 93.2,164.8 92.5,164.9 91.9,164.9 91.3,164.9 		90.6,164.9 90,164.9 89.4,164.9 88.8,164.8 88.2,164.7 87.5,164.6 86.9,164.4 86.3,164.3 85.7,164.1 85.2,163.9 84.6,163.6 		84,163.4 83.4,163.1 82.9,162.7 82.3,162.4 81.7,162.1 81.2,161.6 80.7,161.2 80.2,160.8 79.7,160.3 79.1,159.7 78.6,159.1 		78.2,158.5 77.7,157.9 77.3,157.3 76.9,156.6 76.6,156 76.3,155.3 76,154.7 75.8,154 75.6,153.3 75.4,152.7 75.3,152 75.2,151.3 		75.1,150.6 75.1,149.9 75.1,149.2 75.1,148.5 75.2,147.8 75.3,147.1 75.4,146.4 75.6,145.7 75.8,145 76.1,144.3 76.4,143.6 		76.7,142.9 77.1,142.2 77.4,141.6 77.9,140.9 78.4,140.2 78.9,139.5 79.4,138.8 79.9,138.4 80.4,137.9 80.9,137.5 81.5,137.1 		82,136.7 82.5,136.4 83,136 83.6,135.8 84.1,135.5 84.7,135.2 85.3,135 85.9,134.8 86.4,134.7 87,134.5 87.6,134.4 88.2,134.3 		88.9,134.3 89.5,134.2 90.1,134.2 90.8,134.2 91.4,134.2 92.1,134.3 92.7,134.4 93.4,134.5 94,134.6 94.7,134.7 95.4,134.9 		96.1,135.1 96.8,135.3 97.6,135.5 98.3,135.8 	"/>	<polygon id="XMLID_198_" class="st0" points="135.3,125.6 136.8,124.7 138.3,123.8 139.7,123 141.2,122.3 142.6,121.6 144.1,121 		145.5,120.4 146.9,119.9 148.3,119.5 149.7,119.1 151.2,118.8 152.6,118.5 154,118.3 155.3,118.2 156.7,118.1 158.1,118.1 		159.4,118.1 160.8,118.2 162.2,118.3 163.5,118.5 164.9,118.8 166.2,119.1 167.5,119.5 168.8,119.9 170.1,120.4 171.4,120.9 		172.7,121.5 174,122.2 175.3,122.9 176.6,123.6 177.8,124.5 179.1,125.3 180.8,126.9 182.4,128.5 183.9,130.1 185.3,131.8 		186.6,133.4 187.7,135.1 188.7,136.8 189.6,138.6 190.4,140.3 191,142 191.6,143.8 192,145.6 192.3,147.3 192.5,149.1 192.7,150.9 		192.7,152.6 192.6,154.4 192.4,156.1 192,157.9 191.7,159.6 191.2,161.3 190.6,163 189.9,164.6 189.1,166.3 188.2,167.9 		187.2,169.5 186.2,171 185,172.5 183.8,174 182.5,175.4 181.1,176.8 179.6,178.2 178.2,179.1 176.8,179.9 175.4,180.7 173.9,181.4 		172.5,182.1 171.1,182.7 169.6,183.2 168.2,183.7 166.8,184.1 165.3,184.5 163.9,184.7 162.5,185 161,185.1 159.6,185.2 		158.2,185.3 156.7,185.2 155.3,185.1 153.9,185 152.5,184.8 151.1,184.5 149.7,184.2 148.3,183.8 147,183.4 145.6,182.8 		144.2,182.3 142.9,181.6 141.6,180.9 140.3,180.2 139,179.4 137.7,178.5 136.5,177.5 135.2,176.5 136.5,177 137.7,177.5 		138.9,177.9 140.2,178.3 141.4,178.6 142.6,178.9 143.8,179.1 145,179.3 146.3,179.5 147.5,179.6 148.7,179.7 149.9,179.8 		151,179.8 152.2,179.7 153.4,179.6 154.6,179.5 155.7,179.3 156.8,179.1 158,178.8 159.1,178.5 160.2,178.1 161.3,177.7 		162.4,177.3 163.5,176.8 164.6,176.2 165.6,175.7 166.7,175 167.7,174.3 168.7,173.6 169.7,172.8 170.7,172 171.6,171.1 172.6,170 		173.6,168.9 174.4,167.7 175.3,166.5 176,165.4 176.7,164.2 177.4,163 177.9,161.7 178.4,160.5 178.9,159.3 179.3,158 179.6,156.7 		179.9,155.5 180,154.2 180.2,152.9 180.2,151.6 180.2,150.3 180.2,149 180,147.7 179.8,146.4 179.6,145.1 179.2,143.7 178.8,142.4 		178.3,141.1 177.8,139.8 177.2,138.5 176.5,137.2 175.7,135.9 174.9,134.6 174,133.4 173.1,132.1 172,130.9 171.1,130 170.2,129.1 		169.2,128.3 168.3,127.6 167.3,126.9 166.3,126.2 165.3,125.6 164.3,125.1 163.2,124.6 162.2,124.1 161.1,123.7 160,123.3 		158.9,123 157.8,122.8 156.7,122.6 155.5,122.4 154.4,122.3 153.2,122.2 152,122.2 150.8,122.2 149.6,122.2 148.4,122.3 		147.1,122.5 145.9,122.7 144.6,122.9 143.3,123.1 142,123.5 140.7,123.8 139.4,124.2 138.1,124.6 136.7,125.1 	"/>	<polygon id="XMLID_197_" class="st0" points="133.8,132 134.9,131.3 135.9,130.7 137,130.1 138,129.6 139.1,129.1 140.1,128.7 		141.1,128.3 142.2,127.9 143.2,127.6 144.2,127.3 145.2,127.1 146.2,126.9 147.2,126.7 148.2,126.6 149.2,126.6 150.2,126.5 		151.2,126.6 152.1,126.7 153.1,126.7 154.1,126.9 155,127.1 156,127.3 156.9,127.6 157.9,127.9 158.8,128.2 159.8,128.6 160.7,129 		161.6,129.5 162.5,130 163.5,130.6 164.4,131.2 165.2,131.8 166.5,132.9 167.7,134 168.7,135.2 169.7,136.4 170.6,137.6 		171.4,138.8 172.1,140 172.8,141.3 173.3,142.5 173.8,143.8 174.2,145 174.5,146.3 174.8,147.6 174.9,148.8 175,150.1 175,151.4 		174.9,152.6 174.8,153.9 174.6,155.1 174.3,156.4 173.9,157.6 173.5,158.8 173,160 172.4,161.2 171.8,162.3 171.1,163.4 		170.4,164.6 169.5,165.7 168.6,166.7 167.7,167.7 166.7,168.8 165.6,169.7 164.6,170.4 163.6,171 162.6,171.5 161.6,172.1 		160.5,172.5 159.5,173 158.5,173.3 157.5,173.7 156.4,174 155.4,174.2 154.4,174.4 153.3,174.6 152.3,174.7 151.3,174.8 		150.2,174.8 149.2,174.8 148.2,174.7 147.2,174.6 146.2,174.5 145.2,174.3 144.2,174 143.2,173.8 142.2,173.4 141.2,173.1 		140.3,172.6 139.3,172.2 138.4,171.7 137.4,171.1 136.5,170.6 135.6,169.9 134.7,169.3 133.8,168.5 134.7,168.9 135.6,169.2 		136.4,169.5 137.3,169.8 138.2,170 139.1,170.2 140,170.4 140.8,170.5 141.7,170.7 142.6,170.7 143.4,170.8 144.3,170.8 		145.1,170.8 146,170.8 146.8,170.7 147.6,170.6 148.5,170.5 149.3,170.4 150.1,170.2 150.9,170 151.7,169.7 152.5,169.4 		153.3,169.1 154.1,168.7 154.8,168.3 155.6,167.9 156.3,167.4 157.1,167 157.8,166.4 158.5,165.9 159.2,165.3 159.9,164.6 		160.6,163.8 161.3,163 161.9,162.2 162.5,161.4 163.1,160.5 163.6,159.7 164,158.8 164.4,157.9 164.8,157 165.1,156.1 165.4,155.2 		165.6,154.3 165.8,153.4 165.9,152.5 166,151.6 166.1,150.6 166.1,149.7 166,148.8 165.9,147.8 165.8,146.9 165.6,145.9 165.3,145 		165.1,144.1 164.7,143.1 164.3,142.2 163.9,141.2 163.4,140.3 162.9,139.4 162.3,138.5 161.6,137.6 160.9,136.6 160.2,135.8 		159.5,135.1 158.9,134.5 158.2,133.9 157.5,133.4 156.8,132.9 156.1,132.4 155.4,132 154.6,131.6 153.9,131.2 153.1,130.9 		152.3,130.6 151.6,130.4 150.8,130.1 150,130 149.2,129.8 148.4,129.7 147.5,129.6 146.7,129.5 145.9,129.5 145,129.5 144.1,129.6 		143.2,129.6 142.3,129.7 141.4,129.9 140.5,130 139.6,130.2 138.7,130.4 137.7,130.7 136.8,131 135.8,131.3 134.8,131.6 	"/>	<polygon id="XMLID_196_" class="st0" points="131.1,140.3 131.6,140 132.1,139.6 132.7,139.4 133.2,139.1 133.7,138.8 134.2,138.6 		134.7,138.4 135.3,138.2 135.8,138.1 136.3,137.9 136.8,137.8 137.3,137.7 137.8,137.7 138.3,137.6 138.8,137.6 139.3,137.6 		139.8,137.6 140.3,137.6 140.8,137.7 141.2,137.7 141.7,137.8 142.2,137.9 142.7,138.1 143.2,138.2 143.6,138.4 144.1,138.6 		144.6,138.8 145,139.1 145.5,139.3 145.9,139.6 146.4,139.9 146.9,140.2 147.5,140.8 148.1,141.3 148.6,141.9 149.1,142.5 		149.6,143.1 150,143.7 150.3,144.3 150.6,145 150.9,145.6 151.2,146.2 151.4,146.9 151.5,147.5 151.7,148.2 151.7,148.8 		151.8,149.4 151.8,150.1 151.7,150.7 151.7,151.3 151.6,151.9 151.4,152.6 151.2,153.2 151,153.8 150.8,154.4 150.5,155 		150.2,155.6 149.8,156.2 149.4,156.7 149,157.2 148.6,157.8 148.1,158.3 147.6,158.8 147.1,159.3 146.6,159.6 146,159.9 		145.5,160.2 145,160.5 144.5,160.7 144,160.9 143.5,161.1 143,161.3 142.4,161.4 141.9,161.6 141.4,161.7 140.9,161.7 140.3,161.8 		139.8,161.8 139.3,161.8 138.8,161.8 138.3,161.8 137.8,161.8 137.3,161.7 136.8,161.6 136.3,161.5 135.8,161.3 135.3,161.2 		134.8,161 134.3,160.8 133.8,160.5 133.3,160.3 132.9,160 132.4,159.7 131.9,159.4 131.5,159.1 131,158.7 131.5,158.9 131.9,159 		132.4,159.2 132.8,159.3 133.3,159.4 133.7,159.5 134.2,159.6 134.6,159.7 135,159.8 135.5,159.8 135.9,159.8 136.3,159.9 		136.7,159.9 137.2,159.8 137.6,159.8 138,159.8 138.4,159.7 138.8,159.6 139.3,159.5 139.6,159.4 140.1,159.3 140.5,159.1 		140.8,159 141.2,158.8 141.6,158.6 142,158.4 142.4,158.2 142.8,157.9 143.1,157.6 143.5,157.4 143.8,157 144.2,156.7 144.5,156.3 		144.9,155.9 145.2,155.5 145.5,155.1 145.8,154.7 146,154.2 146.2,153.8 146.5,153.3 146.6,152.9 146.8,152.4 146.9,152 		147.1,151.5 147.2,151.1 147.2,150.6 147.3,150.2 147.3,149.7 147.3,149.2 147.3,148.7 147.2,148.3 147.1,147.8 147,147.3 		146.9,146.8 146.8,146.4 146.6,145.9 146.4,145.4 146.2,145 145.9,144.5 145.7,144 145.4,143.6 145,143.1 144.7,142.7 144.3,142.2 		144,141.9 143.7,141.5 143.3,141.3 143,141 142.6,140.7 142.2,140.5 141.9,140.3 141.5,140.1 141.1,139.9 140.8,139.8 140.4,139.6 		140,139.5 139.6,139.4 139.2,139.3 138.8,139.2 138.4,139.1 137.9,139.1 137.5,139.1 137.1,139 136.7,139.1 136.2,139.1 		135.8,139.1 135.3,139.2 134.9,139.2 134.4,139.3 133.9,139.4 133.5,139.5 133,139.6 132.5,139.8 132.1,139.9 131.6,140.1 	"/>	<polygon id="XMLID_195_" class="st0" points="131.5,136 132.3,135.6 133,135.1 133.8,134.7 134.6,134.3 135.3,133.9 136.1,133.6 		136.9,133.3 137.6,133 138.4,132.8 139.1,132.6 139.9,132.4 140.6,132.3 141.4,132.2 142.1,132.1 142.9,132 143.6,132 144.3,132 		145,132.1 145.8,132.2 146.5,132.3 147.2,132.4 147.9,132.6 148.6,132.8 149.3,133 150,133.3 150.7,133.5 151.4,133.9 152.1,134.2 		152.8,134.6 153.5,135 154.1,135.4 154.8,135.9 155.7,136.7 156.6,137.6 157.4,138.4 158.1,139.3 158.8,140.2 159.4,141.1 		159.9,142 160.4,142.9 160.8,143.9 161.2,144.8 161.5,145.7 161.7,146.7 161.9,147.6 162,148.6 162.1,149.5 162.1,150.5 162,151.4 		161.9,152.3 161.7,153.3 161.5,154.2 161.2,155.1 160.9,156 160.6,156.9 160.1,157.7 159.7,158.6 159.1,159.4 158.6,160.3 		158,161.1 157.3,161.9 156.6,162.6 155.9,163.4 155.1,164.1 154.3,164.6 153.6,165 152.8,165.4 152.1,165.8 151.3,166.2 		150.5,166.5 149.8,166.8 149,167 148.2,167.3 147.5,167.4 146.7,167.6 145.9,167.7 145.2,167.8 144.4,167.9 143.6,167.9 		142.9,167.9 142.1,167.8 141.4,167.7 140.6,167.6 139.9,167.5 139.1,167.3 138.4,167.1 137.7,166.8 136.9,166.6 136.2,166.3 		135.5,165.9 134.8,165.6 134.1,165.2 133.4,164.7 132.7,164.2 132.1,163.7 131.4,163.2 132.1,163.5 132.7,163.7 133.4,163.9 		134.1,164.1 134.7,164.3 135.3,164.5 136,164.6 136.7,164.7 137.3,164.8 137.9,164.9 138.6,164.9 139.2,164.9 139.8,164.9 		140.5,164.9 141.1,164.9 141.7,164.8 142.3,164.7 142.9,164.6 143.5,164.4 144.2,164.3 144.7,164.1 145.3,163.9 145.9,163.6 		146.5,163.4 147.1,163.1 147.6,162.7 148.2,162.4 148.7,162.1 149.3,161.6 149.8,161.2 150.3,160.8 150.8,160.3 151.4,159.7 		151.9,159.1 152.3,158.5 152.8,157.9 153.2,157.3 153.5,156.6 153.9,156 154.2,155.3 154.5,154.7 154.7,154 154.9,153.3 		155.1,152.7 155.2,152 155.3,151.3 155.4,150.6 155.4,149.9 155.4,149.2 155.4,148.5 155.3,147.8 155.2,147.1 155.1,146.4 		154.9,145.7 154.7,145 154.4,144.3 154.1,143.6 153.8,142.9 153.4,142.2 153,141.6 152.6,140.9 152.1,140.2 151.6,139.5 151,138.8 		150.5,138.4 150,137.9 149.6,137.5 149,137.1 148.5,136.7 148,136.4 147.5,136 146.9,135.8 146.3,135.5 145.8,135.2 145.2,135 		144.6,134.8 144.1,134.7 143.5,134.5 142.9,134.4 142.2,134.3 141.6,134.3 141,134.2 140.4,134.2 139.7,134.2 139.1,134.2 		138.4,134.3 137.8,134.4 137.1,134.5 136.4,134.6 135.7,134.7 135,134.9 134.3,135.1 133.6,135.3 132.9,135.5 132.2,135.8 	"/>	<path id="XMLID_192_" class="st0" d="M117.5,140.3l0.3-0.4l0.3-0.4l0.3-0.3l0.3-0.3l0.6-0.5l0.5-0.5l0.3-0.3l0.3-0.3l0.3-0.3		l0.2-0.3l0.2-0.3l0.3-0.3l0.3-0.4l0.3-0.4l0.1-0.1l0.1-0.2l0.1-0.2l0.1-0.2l0.3-0.5l0.2-0.5l0.3-0.5l0.2-0.5l0.2-0.5l0.1-0.4		l0.1-0.2l0-0.2l0-0.2l0-0.2l0.1-0.4l0.1-0.4l0-0.4l0-0.5l0-0.4l0-0.5l0-0.4l0-0.4l0-0.2l0-0.2l0-0.2l0-0.2l0-0.2l0-0.2l-0.1-0.1		l-0.1-0.1l-0.1-0.1l-0.1-0.1l-0.1-0.1l-0.1-0.1l0,0l0-0.1l0,0v0v0l0,0l0,0l0,0l-0.4-0.1l-0.5-0.1l-0.5-0.1l-0.5-0.1l-0.5-0.1		l-0.5-0.1l-0.5-0.1l-0.5-0.1l-0.5-0.1l-0.5-0.1l-0.5-0.1l-0.5-0.1l-0.5,0l-0.5,0l-0.5,0h-0.5h-0.5l-0.5,0l-0.5,0l-0.5,0l-0.5,0		l-0.5,0.1l-0.5,0.1l-0.5,0.1l-0.5,0.1l-0.4,0.1L110,125l-0.5,0.1l-0.5,0.1l-0.5,0.2l-0.5,0.2l-0.5,0.2l-0.1,0l0,0l0,0l0,0.1l0,0.2		l0,0.2l0,0.2l0,0.2l-0.1,0.3l0,0.3l0,0.3l0,0.3v0.3l0,0.3l0,0.4l0,0.4l0,0.4l0,0.4l0.1,0.4l0.1,0.4l0.1,0.4l0.1,0.4l0.1,0.3		l0.1,0.3l0.1,0.2l0.1,0.2l0.1,0.2l0.1,0.2l0.1,0.3l0.2,0.4l0.1,0.2l0.1,0.2l0.1,0.2l0.1,0.3l0.1,0.2l0.2,0.2l0.1,0.2l0.2,0.2		l0.3,0.4l0.3,0.4l0.4,0.4l0.4,0.4l0.7,0.8l0.7,0.8l0.3,0.4l0.4,0.4l0.3,0.4l0.3,0.4l0,35.5l-6.1,9.2l16,0l-6-9.3L117.5,140.3z		 M115.5,125.1l0.8,0l0.8,0l0.8,0l0.7,0l0.7,0.1l0.7,0.1l0.6,0.1l0.6,0.1l0.5,0.1l0.5,0.1l0.2,0l0.2,0.1l0.2,0.1l0.2,0.1l0.2,0		l0.1,0.1l0.1,0.1l0.1,0l0.1,0.1l0.1,0.1l0,0.1l0,0.1l0,0.1l0,0.1l-0.1,0.1l-0.1,0l-0.1,0.1l-0.1,0.1l-0.1,0.1l-0.2,0.1l-0.2,0.1		l-0.2,0l-0.2,0.1l-0.2,0.1l-0.5,0.1l-0.5,0.1l-0.6,0.1l-0.6,0.1l-0.7,0.1l-0.7,0.1l-0.7,0l-0.8,0l-0.8,0h-0.8h-0.8l-0.8,0l-0.8,0		l-0.7,0l-0.7-0.1l-0.7-0.1l-0.6-0.1l-0.6-0.1l-0.5-0.1l-0.5-0.1l-0.2-0.1l-0.2-0.1l-0.2,0l-0.2-0.1l-0.1-0.1l-0.1-0.1l-0.1-0.1		l-0.1-0.1l-0.1,0l-0.1-0.1l0-0.1l0-0.1l0-0.1l0-0.1l0.1-0.1l0.1-0.1l0.1,0l0.1-0.1l0.1-0.1l0.1,0l0.2-0.1l0.2-0.1l0.2-0.1l0.2,0		l0.5-0.1l0.5-0.1l0.6-0.1l0.6-0.1l0.7-0.1l0.7-0.1l0.7,0l0.8,0l0.8,0L115.5,125.1z"/>	<path id="XMLID_188_" class="st1" d="M113.6,143.3l-0.2-0.1l-0.2-0.1l-0.2-0.1l-0.2-0.1l0,0l-0.1,0l-0.1-0.1l-0.1,0l-0.1,0v0		l-0.1-0.1l-0.1-0.1l-0.1-0.1l-0.1-0.1l-0.5-0.3l-0.4-0.3l-0.4-0.3l-0.4-0.4l-0.4-0.4l-0.4-0.4l-0.4-0.4l-0.4-0.4l-0.3-0.4l-0.4-0.4		l-0.3-0.4l-0.3-0.4l-0.3-0.4l-0.3-0.4l-0.3-0.4l-0.3-0.4l-0.3-0.4l-0.2-0.4l-0.2-0.4l-0.2-0.5l-0.2-0.4l-0.2-0.5l-0.2-0.4l-0.1-0.4		l-0.1-0.5l-0.1-0.5l-0.1-0.5l-0.1-0.5l-0.1-0.5l0-0.5l0-0.5l0-0.5l0-0.4l0-0.4l0-0.4l0.1-0.4l0.1-0.4l0.1-0.4l0.1-0.3l0.1-0.3		l0.1-0.3l0.1-0.3l0.1-0.3l0.1-0.3l0.1-0.2l0.1-0.2l0.1-0.2l0.1-0.2l0.1-0.2l0.2-0.2l0.1-0.1l0.2-0.1l0.2-0.1l0.2-0.1l0.2-0.1l0.2,0		l0.2-0.1l0.2,0h0.2l0.2,0l0.2,0l0.2,0.1l0.2,0.1l0.2,0.1l5.4,2.9l-1.2-1.2l1.7,0.6l-1.5-1.8l-0.1-0.4l-0.1-0.4l-0.1-0.4l-0.1-0.4		l-0.1-0.4l-0.1-0.3l-0.1-0.3L112,121l-0.2-0.3l-0.2-0.3l-0.2-0.2l-0.2-0.2l-0.2-0.2l-0.2-0.2l-0.2-0.2l-0.2-0.2l-0.3-0.1l-0.3-0.1		l-0.3-0.1l-0.3-0.1l-0.3-0.1l-0.3-0.1l-0.3-0.1l-0.3,0l-0.3,0h-0.3l-0.4,0h-0.3l-0.4,0l-0.4,0l-0.4,0l-0.4,0l-0.6,0.3l-0.5,0.4		l-0.5,0.4L103,120l-0.4,0.6l-0.4,0.7l-0.3,0.7l-0.3,0.8l-0.3,0.8l-0.2,0.9l-0.2,0.9l-0.1,1l0,1l0,1l0,1l0.1,1.1l0.2,1.1l0.2,1.1		l0.3,1.1l0.4,1.1l0.4,1.1l0.5,1.1l0.6,1.1l0.6,1.1l0.7,1.1l0.8,1l0.9,1l1,1l1.1,0.9l1.1,0.9l1.2,0.9l1.3,0.8l0.5,0.2l0.5,0.3		l0.4,0.3l0.4,0.2l0.4,0.2l0.4,0.2l0.4,0.3l0.4,0.2l0.2-0.1l0.2-0.2l0.3-0.1l0.2-0.2l0.3-0.1l0.2-0.1l0.2-0.1l0.3-0.1v2.6l0.5,0.4		l0.5,0.4l0.4,0.4l0.4,0.4l0.4,0.4l0.3,0.4l0.3,0.4l0.3,0.4l0.2,0.4l0.2,0.4l0.2,0.4l0.1,0.4l0.1,0.4l0.1,0.4l0,0.4l0,0.4l0,0.4		l-0.1,0.4l-0.1,0.4l-0.1,0.4l-0.2,0.4l-0.2,0.4l-0.3,0.4l-0.3,0.4l-0.3,0.4l-0.4,0.4l-0.4,0.4l-0.4,0.4l-0.5,0.4l-0.5,0.4l-0.6,0.4		l-0.6,0.4l-0.7,0.4l-0.7,0.4l-0.6,0.4l-0.6,0.4l-0.6,0.4l-0.5,0.4l-0.5,0.4l-0.5,0.4l-0.4,0.4l-0.4,0.4l-0.4,0.4l-0.3,0.4l-0.3,0.4		l-0.3,0.5l-0.3,0.4l-0.3,0.4l-0.2,0.4l-0.2,0.4l-0.2,0.5l-0.1,0.5l-0.1,0.5l-0.1,0.5l0,0.5l0,0.5v0.5l0,0.5l0,0.5l0.1,0.5l0.1,0.5		l0.1,0.5l0.1,0.5l0.2,0.5l0.1-0.4l0.1-0.4l0.1-0.4l0.1-0.4l0.1-0.4l0.1-0.4l0.1-0.4l0.1-0.4l0.1-0.4l0.2-0.4l0.2-0.3l0.2-0.4		l0.2-0.4l0.2-0.3l0.2-0.4l0.2-0.3l0.2-0.3l0.2-0.3l0.3-0.3l0.3-0.3l0.3-0.3l0.3-0.3l0.3-0.3l0.3-0.3l0.3-0.3l0.4-0.3l0.4-0.3		l0.4-0.3l0.4-0.3l0.4-0.3l0.4-0.3l0.5-0.2l1.3-0.8l1.2-0.8l1.1-0.8l1-0.8l0.8-0.8l0.7-0.8l0.6-0.8l0.5-0.8l0.4-0.8l0.4-0.8l0.3-0.8		l0.2-0.8l0.1-0.7l0.1-0.7v-0.7l-0.1-0.7l-0.1-0.7l-0.2-0.6l-0.2-0.6l-0.2-0.6l-0.3-0.5l-0.3-0.5l-0.3-0.5l-0.3-0.5l-0.3-0.4		l-0.3-0.4l-0.3-0.4l-0.3-0.3l-0.3-0.3l-0.2-0.3l-0.3-0.2l-0.2-0.2l-1-0.7l-0.9-0.6l-0.8-0.5l-0.7-0.4l-0.6-0.4l-0.5-0.3l-0.5-0.3		l-0.4-0.2l-0.3,0.1l-0.2,0.1l-0.2,0.1l-0.2,0.1l-0.2,0.1l-0.2,0.1l-0.2,0.1l-0.2,0.1V143.3z M112.9,142.9L112.9,142.9L112.9,142.9		L112.9,142.9L112.9,142.9z M112.7,142.8L112.7,142.8L112.7,142.8L112.7,142.8L112.7,142.8z"/>	<path id="XMLID_182_" class="st1" d="M116,143.8l-0.3,0.2l-0.1,0.1l0.1-0.1L116,143.8z M116,143.8L116,143.8L116,143.8L116,143.8		l0.1,0l0,0l0,0L116,143.8z M116.2,143.8l0.2-0.1l0.2-0.1l0.2-0.1l0.2-0.1l0.2-0.1l0.2-0.1l0.2-0.1l0.2-0.1l0,0l0.1,0l0.1-0.1l0.1,0		l0.1,0l0,0l0.1-0.1l0.1-0.1l0.1-0.1l0.1-0.1l0.4-0.3l0.4-0.3l0.4-0.3l0.4-0.4l0.4-0.4l0.4-0.4l0.3-0.4l0.4-0.4l0.3-0.4l0.3-0.4		l0.3-0.4l0.3-0.4l0.3-0.4l0.3-0.4l0.3-0.4l0.3-0.4l0.3-0.4l0.2-0.4l0.2-0.4l0.2-0.5l0.2-0.4l0.2-0.5l0.2-0.4l0.1-0.4l0.2-0.5		l0.1-0.5l0.1-0.5l0.1-0.5l0.1-0.5l0.1-0.5l0.1-0.5v-0.5l0-0.4l0-0.4l-0.1-0.4l-0.1-0.4l-0.1-0.4l-0.1-0.4l-0.1-0.3l-0.1-0.3		l-0.1-0.3l-0.1-0.3l-0.1-0.3l-0.1-0.3l-0.1-0.2l-0.1-0.2l-0.1-0.2l-0.1-0.2l-0.1-0.2l-0.2-0.2l-0.2-0.1l-0.1-0.1l-0.2-0.1l-0.2-0.1		l-0.2-0.1l-0.2,0l-0.2-0.1l-0.2,0h-0.2l-0.2,0l-0.2,0l-0.2,0.1l-0.2,0.1l-0.2,0.1l-5.5,2.9l1.2-1.2l-1.7,0.6l1.5-1.8l0.1-0.4		l0.1-0.4l0.1-0.4l0.1-0.4l0.1-0.4l0.1-0.3l0.1-0.3l0.2-0.3l0.2-0.3l0.2-0.3l0.2-0.2l0.2-0.2l0.2-0.2l0.2-0.2l0.3-0.2l0.2-0.2		l0.3-0.1l0.3-0.1l0.3-0.1l0.3-0.1l0.3-0.1l0.3-0.1l0.3-0.1l0.3,0l0.3,0h0.3l0.4,0h0.3l0.4,0l0.4,0l0.4,0l0.4,0l0.6,0.3l0.6,0.4		l0.5,0.4l0.5,0.5l0.4,0.6l0.4,0.7l0.3,0.7l0.3,0.8l0.3,0.8l0.2,0.9l0.2,0.9l0.1,1l0.1,1l0,1l0,1l-0.1,1.1l-0.2,1.1l-0.2,1.1		l-0.3,1.1l-0.4,1.1l-0.4,1.1l-0.5,1.1l-0.6,1.1l-0.7,1.1l-0.7,1.1l-0.8,1l-0.9,1l-1,1l-1,0.9l-1.1,0.9l-1.2,0.9l-1.3,0.8l-0.9,0.5		l-0.9,0.5l-0.8,0.5l-0.8,0.5l-0.7,0.5l-0.7,0.5l-0.6,0.5l-0.6,0.5l-0.6,0.5l-0.5,0.5l-0.4,0.5l-0.4,0.5l-0.4,0.5l-0.3,0.5l-0.2,0.5		l-0.2,0.5l-0.1,0.5l-0.1,0.5l0,0.5v0.5l0,0.5l0.1,0.5l0.1,0.5l0.2,0.5l0.2,0.5l0.3,0.5l0.4,0.5l0.4,0.4l0.4,0.5l0.5,0.5l0.6,0.5		l0.6,0.5l0,2.7l1.9-1.4l0.6,0.4l0.6,0.4l0.6,0.4l0.5,0.4l0.5,0.4l0.5,0.4l0.5,0.4l0.4,0.4l0.4,0.4l0.4,0.4l0.3,0.4l0.3,0.4l0.3,0.4		l0.3,0.4l0.2,0.4l0.2,0.4l0.2,0.4l0.2,0.4l0.1,0.4l0.1,0.5l0.1,0.4l0.1,0.5l0,0.4l0,0.5l0,0.5l0,0.5l-0.1,0.5l-0.1,0.5l-0.1,0.5		l-0.1,0.5l-0.1,0.5l-0.2,0.5l-0.1-0.6l-0.2-0.6l-0.2-0.6l-0.2-0.6l-0.1-0.3l-0.1-0.3l-0.1-0.3l-0.1-0.3l-0.1-0.3l-0.2-0.3l-0.1-0.3		l-0.1-0.3l-0.2-0.3l-0.2-0.3l-0.2-0.3l-0.2-0.3l-0.2-0.3l-0.2-0.3l-0.2-0.3l-0.2-0.3l-0.2-0.2l-0.2-0.3l-0.2-0.2l-0.3-0.2l-0.2-0.2		l-0.3-0.3l-0.3-0.2l-0.3-0.2V166l-2,1.3l-0.2-0.1l-0.2-0.1l-0.2-0.1l-0.2-0.1l-1.3-0.8l-1.2-0.8l-1.1-0.8l-1-0.8l-0.8-0.8l-0.7-0.8		l-0.6-0.8l-0.6-0.8l-0.4-0.8l-0.3-0.8l-0.3-0.8l-0.2-0.8l-0.1-0.7l-0.1-0.7l0-0.7l0.1-0.7l0.1-0.7l0.2-0.6l0.2-0.6l0.2-0.6l0.3-0.5		l0.3-0.5l0.3-0.5l0.3-0.5l0.3-0.4l0.3-0.4l0.3-0.4l0.3-0.3l0.3-0.3l0.3-0.3l0.2-0.2l0.2-0.2l0.7-0.5l0.6-0.4l0.6-0.4l0.5-0.3		l0.5-0.3l0.4-0.3l0.4-0.3l0.4-0.2l0.4-0.2l0.3-0.2l0.3-0.2l0.3-0.1l0.5-0.2L116.2,143.8L116.2,143.8L116.2,143.8z M118,142.9		L118,142.9L118,142.9L118,142.9L118,142.9z M118.2,142.8L118.2,142.8L118.2,142.8L118.2,142.8L118.2,142.8z"/></g><g>	<path class="st2" d="M240.2,129.8c3.6,0,6.9,0.4,9.9,1.1c3,0.7,5.5,1.9,7.6,3.4c2.1,1.5,3.7,3.5,4.9,5.9c1.2,2.4,1.7,5.2,1.7,8.4		v23.7c0,1.8-0.5,3.3-1.4,4.3c-0.9,1.1-2.1,2-3.4,2.8c-2.2,1.3-4.8,2.3-8,3c-3.1,0.7-6.7,1-10.7,1c-7.2,0-12.9-1.4-17.2-4.1		c-4.3-2.8-6.4-7-6.4-12.6c0-4.8,1.4-8.5,4.3-11c2.9-2.5,7.3-4.1,13.2-4.7l13.9-1.5v-1.2c0-2.2-0.9-3.9-2.7-4.9		c-1.8-1-4.4-1.6-7.9-1.6c-2.7,0-5.3,0.3-7.8,0.9c-2.6,0.6-4.8,1.4-6.9,2.2c-0.8-0.6-1.6-1.4-2.1-2.6c-0.6-1.2-0.9-2.4-0.9-3.7		c0-3.1,1.6-5.3,4.8-6.6c2-0.8,4.4-1.3,7.1-1.7C234.9,130,237.6,129.8,240.2,129.8z M240.8,171.6c1.5,0,3.1-0.2,4.6-0.5		c1.5-0.3,2.6-0.7,3.4-1.2v-9.6l-8.6,0.7c-2.2,0.2-4,0.7-5.4,1.5c-1.4,0.8-2,2-2,3.6c0,1.7,0.6,3,1.9,4		C235.9,171.1,237.9,171.6,240.8,171.6z"/>	<path class="st2" d="M286.8,182.3c-1.3,0.2-2.7,0.3-4.2,0.3c-3.1,0-5.4-0.5-6.8-1.5c-1.4-1-2.1-3-2.1-5.9v-61.5		c0.8-0.2,1.8-0.4,3-0.6c1.3-0.2,2.7-0.3,4.2-0.3c3.1,0,5.4,0.5,6.8,1.6s2,3,2,6v12.1c1.5-0.7,3.1-1.3,5-1.7c1.9-0.5,3.9-0.7,6-0.7		c6.7,0,12,1.7,15.8,5.1c3.8,3.4,5.7,8.5,5.7,15.2v31.5c-0.7,0.2-1.7,0.4-2.9,0.6c-1.3,0.2-2.7,0.3-4.2,0.3c-3.1,0-5.4-0.5-6.8-1.5		c-1.4-1-2.1-3-2.1-5.9v-24c0-3.1-0.8-5.4-2.4-6.7c-1.6-1.3-3.6-2-6-2c-1.6,0-3.1,0.2-4.4,0.7c-1.3,0.5-2.6,1-3.7,1.6v37		C289,181.9,288,182.1,286.8,182.3z"/>	<path class="st2" d="M352.1,129.8c3.6,0,6.9,0.4,9.9,1.1c3,0.7,5.5,1.9,7.6,3.4c2.1,1.5,3.7,3.5,4.9,5.9c1.2,2.4,1.7,5.2,1.7,8.4		v23.7c0,1.8-0.5,3.3-1.4,4.3c-0.9,1.1-2.1,2-3.4,2.8c-2.2,1.3-4.8,2.3-8,3c-3.1,0.7-6.7,1-10.7,1c-7.2,0-12.9-1.4-17.2-4.1		c-4.3-2.8-6.4-7-6.4-12.6c0-4.8,1.4-8.5,4.3-11c2.9-2.5,7.3-4.1,13.2-4.7l13.9-1.5v-1.2c0-2.2-0.9-3.9-2.7-4.9		c-1.8-1-4.4-1.6-7.9-1.6c-2.7,0-5.3,0.3-7.8,0.9c-2.6,0.6-4.8,1.4-6.9,2.2c-0.8-0.6-1.6-1.4-2.1-2.6c-0.6-1.2-0.9-2.4-0.9-3.7		c0-3.1,1.6-5.3,4.8-6.6c2-0.8,4.4-1.3,7.1-1.7C346.8,130,349.5,129.8,352.1,129.8z M352.7,171.6c1.5,0,3.1-0.2,4.6-0.5		c1.5-0.3,2.6-0.7,3.4-1.2v-9.6l-8.6,0.7c-2.2,0.2-4,0.7-5.4,1.5c-1.4,0.8-2,2-2,3.6c0,1.7,0.6,3,1.9,4		C347.8,171.1,349.8,171.6,352.7,171.6z"/>	<path class="st2" d="M394.8,182.5c-3.1,0-5.4-0.5-6.8-1.5c-1.4-1-2-3-2-5.9v-61.5c0.7-0.2,1.7-0.4,3-0.6c1.3-0.2,2.7-0.3,4.2-0.3		c3.1,0,5.3,0.5,6.7,1.6c1.4,1,2.1,3,2.1,6v61.5c-0.8,0.2-1.8,0.4-3,0.6C397.8,182.4,396.4,182.5,394.8,182.5z"/>	<path class="st2" d="M411.6,116.9c0-2.4,0.8-4.4,2.5-6.1c1.6-1.7,3.8-2.5,6.4-2.5c2.7,0,4.8,0.8,6.4,2.5s2.5,3.7,2.5,6.1		c0,2.4-0.8,4.5-2.5,6.2c-1.6,1.7-3.8,2.5-6.4,2.5c-2.7,0-4.8-0.8-6.4-2.5C412.4,121.4,411.6,119.4,411.6,116.9z M428.5,181.7		c-0.7,0.2-1.7,0.4-2.9,0.6c-1.3,0.2-2.7,0.3-4.2,0.3c-3.1,0-5.4-0.5-6.8-1.5c-1.4-1-2-3-2-5.9V132c0.7-0.2,1.7-0.4,2.9-0.6		c1.3-0.2,2.7-0.3,4.2-0.3c3.1,0,5.4,0.5,6.8,1.6c1.4,1,2,3,2,6V181.7z"/>	<path class="st2" d="M458.6,129.8c3.6,0,6.9,0.4,9.9,1.1c3,0.7,5.5,1.9,7.6,3.4c2.1,1.5,3.7,3.5,4.9,5.9c1.2,2.4,1.7,5.2,1.7,8.4		v23.7c0,1.8-0.5,3.3-1.4,4.3c-0.9,1.1-2.1,2-3.4,2.8c-2.2,1.3-4.8,2.3-8,3c-3.1,0.7-6.7,1-10.7,1c-7.2,0-12.9-1.4-17.2-4.1		c-4.3-2.8-6.4-7-6.4-12.6c0-4.8,1.4-8.5,4.3-11c2.9-2.5,7.3-4.1,13.2-4.7l13.9-1.5v-1.2c0-2.2-0.9-3.9-2.7-4.9		c-1.8-1-4.4-1.6-7.9-1.6c-2.7,0-5.3,0.3-7.8,0.9c-2.6,0.6-4.8,1.4-6.9,2.2c-0.8-0.6-1.6-1.4-2.1-2.6c-0.6-1.2-0.9-2.4-0.9-3.7		c0-3.1,1.6-5.3,4.8-6.6c2-0.8,4.4-1.3,7.1-1.7C453.4,130,456,129.8,458.6,129.8z M459.3,171.6c1.5,0,3.1-0.2,4.6-0.5		c1.5-0.3,2.6-0.7,3.4-1.2v-9.6l-8.6,0.7c-2.2,0.2-4,0.7-5.4,1.5c-1.4,0.8-2,2-2,3.6c0,1.7,0.6,3,1.9,4		C454.3,171.1,456.4,171.6,459.3,171.6z"/>	<path class="st3" d="M568.2,181.7c-0.8,0.2-1.8,0.4-3,0.6c-1.3,0.2-2.7,0.3-4.2,0.3c-3.1,0-5.4-0.5-6.8-1.5c-1.4-1-2-3-2-5.9v-26		c0-2.3-0.6-4-1.9-5.1c-1.3-1.1-3-1.6-5.1-1.6c-1.4,0-2.7,0.2-3.9,0.7c-1.2,0.5-2.3,1.1-3.3,1.9c0.1,0.4,0.1,0.7,0.2,1		c0,0.4,0.1,0.7,0.1,1v34.6c-0.8,0.2-1.8,0.4-3,0.6c-1.3,0.2-2.7,0.3-4.2,0.3c-3.1,0-5.4-0.5-6.8-1.5c-1.4-1-2-3-2-5.9v-26		c0-2.3-0.7-4-2.1-5.1c-1.4-1.1-3.1-1.6-5.1-1.6c-1.5,0-2.8,0.2-4,0.7c-1.2,0.5-2.2,0.9-2.9,1.3v37.3c-0.7,0.2-1.7,0.4-2.9,0.6		c-1.3,0.2-2.7,0.3-4.2,0.3c-3.1,0-5.4-0.5-6.8-1.5c-1.4-1-2.1-3-2.1-5.9v-32.4c0-1.8,0.4-3.3,1.2-4.4c0.8-1.1,1.9-2.2,3.2-3.1		c2.3-1.6,5.2-2.9,8.5-3.9c3.4-1,6.9-1.5,10.6-1.5c2.9,0,5.7,0.4,8.3,1.2c2.6,0.8,5,2,7.2,3.7c2.1-1.4,4.5-2.6,7.1-3.5		c2.7-0.9,5.8-1.4,9.4-1.4c2.7,0,5.3,0.3,7.8,1c2.5,0.7,4.7,1.7,6.5,3.2c1.9,1.5,3.4,3.5,4.6,5.9c1.2,2.4,1.7,5.3,1.7,8.7V181.7z"/>	<path class="st3" d="M591.3,163.2c1,2.9,2.7,5,5.1,6.2c2.4,1.2,5.3,1.8,8.5,1.8c2.9,0,5.7-0.4,8.3-1.2c2.6-0.8,4.7-1.7,6.3-2.7		c1,0.7,1.9,1.6,2.6,2.7c0.7,1.1,1,2.3,1,3.7c0,1.6-0.5,3-1.5,4.2c-1,1.2-2.3,2.2-4,3c-1.7,0.8-3.7,1.4-6.1,1.8		c-2.3,0.4-4.9,0.6-7.7,0.6c-4.1,0-7.9-0.6-11.4-1.7c-3.5-1.2-6.5-2.9-9-5.1c-2.5-2.3-4.5-5.1-5.9-8.5c-1.4-3.4-2.1-7.4-2.1-12.1		c0-4.5,0.7-8.3,2.1-11.6c1.4-3.3,3.4-6,5.8-8.2c2.4-2.2,5.2-3.8,8.3-4.8c3.1-1,6.3-1.5,9.6-1.5c3.6,0,6.8,0.5,9.8,1.6		c3,1.1,5.5,2.6,7.6,4.6c2.1,2,3.8,4.3,5,7c1.2,2.7,1.8,5.7,1.8,8.9c0,2.2-0.6,3.9-1.8,5c-1.2,1.1-2.9,1.9-5,2.2L591.3,163.2z		 M601.2,141.7c-3,0-5.5,0.9-7.5,2.8c-2,1.9-3.2,4.5-3.5,8l20-3.2c-0.1-1.8-0.9-3.5-2.4-5.1C606.4,142.5,604.2,141.7,601.2,141.7z"		/>	<path class="st3" d="M656.3,129.8c1.6,0,3.1,0.1,4.6,0.4c1.4,0.2,2.7,0.6,3.9,1v-17.6c0.8-0.2,1.8-0.4,3-0.6s2.7-0.3,4.2-0.3		c3.1,0,5.4,0.5,6.8,1.6s2,3,2,6v51c0,1.7-0.3,3.1-1,4.2c-0.7,1.2-1.8,2.2-3.4,3.2c-2,1.2-4.5,2.3-7.5,3.2c-3.1,1-6.6,1.5-10.6,1.5		c-8.8,0-15.7-2.2-20.8-6.7c-5.1-4.4-7.6-11.1-7.6-20c0-4.6,0.7-8.6,2-11.9c1.4-3.4,3.2-6.1,5.6-8.4c2.4-2.2,5.2-3.9,8.4-5		C649.1,130.4,652.6,129.8,656.3,129.8z M664.8,144c-0.9-0.4-1.9-0.8-3-1.1c-1.1-0.3-2.2-0.5-3.4-0.5c-3.8,0-6.8,1.2-9,3.5		c-2.2,2.3-3.4,6-3.4,11c0,4.8,1.1,8.3,3.2,10.5c2.1,2.2,5.1,3.3,8.9,3.3c1.5,0,2.8-0.2,3.9-0.5c1.2-0.3,2.1-0.7,2.8-1.1V144z"/></g></svg>