<svg width="272" height="143" viewBox="0 0 272 143" fill="none" xmlns="http://www.w3.org/2000/svg">
<path fill-rule="evenodd" clip-rule="evenodd" d="M116.678 6.90581L115.391 6.07711L114.012 5.24842L112.725 4.5118L111.346 3.86726L110.059 3.22271L108.68 2.67025L107.393 2.11778L106.106 1.6574L104.818 1.28909L103.439 0.920774L102.152 0.644546L100.865 0.368311L99.5783 0.184159L98.3831 0.092076L97.0961 0H95.809H94.5219L93.3268 0.092076L92.0397 0.184159L90.8446 0.368311L89.5575 0.644546L88.3624 0.920774L87.1672 1.28909L85.9721 1.6574L84.777 2.11778L83.5818 2.57817L82.3867 3.13063L81.1916 3.77517L79.9964 4.41972L78.8013 5.06426L77.6981 5.89296L76.503 6.62958L74.9401 8.10282L73.3772 9.57605L72.0901 11.0493L70.8031 12.6146L69.6079 14.0878L68.5967 15.6532L67.6773 17.2185L66.8499 18.8759L66.1145 20.4412L65.5629 22.0065L65.0113 23.6639L64.6435 25.3213L64.2758 26.8866L64.0919 28.544L64 30.2014V31.7667L64.0919 33.4241L64.2758 34.9894L64.5516 36.6468L64.9193 38.2121L65.379 39.7775L65.9306 41.3428L66.5741 42.816L67.3096 44.3813L68.137 45.8546L69.0563 47.3278L69.9757 48.709L71.0789 50.0901L72.1821 51.4713L73.3772 52.7604L74.6643 54.0495L76.0433 55.3385L77.3304 56.1672L78.6174 56.9038L79.9045 57.6405L81.1916 58.285L82.5706 58.9296L83.8576 59.482L85.1447 59.9424L86.5237 60.4028L87.8108 60.7711L89.0978 61.1394L90.4768 61.3236L91.7639 61.5998L93.1429 61.6919L94.43 61.7839L95.7171 61.876L97.0041 61.7839L98.3831 61.6919L99.6702 61.5998L100.957 61.4156L102.244 61.1394L103.531 60.8632L104.818 60.4949L106.014 60.1266L107.301 59.5741L108.496 59.1137L109.783 58.4692L110.978 57.8246L112.173 57.1801L113.368 56.4435L114.563 55.6148L115.667 54.694L116.862 53.7732L115.667 54.2336L114.563 54.694L113.368 55.0623L112.265 55.4306L111.162 55.7068L110.059 55.9831L108.955 56.1672L107.76 56.3514L106.657 56.5355L105.554 56.6276L104.451 56.7197L103.348 56.8118H102.244L101.233 56.7197L100.13 56.6276L99.1186 56.5355L98.0154 56.3514L96.9122 56.1672L95.9009 55.891L94.8897 55.6148L93.8784 55.2465L92.8671 54.8781L91.8558 54.5098L90.8446 54.0495L89.8333 53.497L88.914 53.0366L87.9027 52.3921L86.9834 51.7475L86.064 51.103L85.1447 50.3664L84.2254 49.6297L83.306 48.801L82.4786 47.7882L81.5593 46.7753L80.7319 45.6704L79.9964 44.5655L79.3529 43.5526L78.7094 42.4477L78.0658 41.3428L77.5142 40.1458L77.1465 39.0408L76.6868 37.9359L76.3191 36.7389L76.0433 35.5419L75.7675 34.437L75.5836 33.2399L75.4917 32.0429L75.3998 30.8459L75.4917 29.6489V28.4519L75.5836 27.2549L75.8594 26.0579L76.0433 24.8609L76.411 23.5718L76.7788 22.3748L77.1465 21.1778L77.6981 19.9808L78.2497 18.7838L78.8932 17.5868L79.5368 16.3898L80.3642 15.1928L81.1916 14.0878L82.019 12.8908L83.0302 11.7859L83.8576 10.9572L84.685 10.1285L85.6044 9.3919L86.4318 8.74736L87.3511 8.10282L88.2704 7.45827L89.1898 6.90581L90.1091 6.44542L91.1204 5.98503L92.0397 5.52465L93.051 5.15633L94.0622 4.78803L95.0735 4.5118L96.0848 4.32764L97.0961 4.14348L98.1073 3.95933L99.2105 3.86726L100.314 3.77517H101.325H102.52H103.623L104.727 3.86726L105.83 4.05141L107.025 4.23556L108.22 4.41972L109.415 4.60387L110.61 4.97218L111.805 5.24842L113.001 5.61672L114.196 5.98503L115.483 6.44542L116.678 6.90581Z" fill="white"/>
<path fill-rule="evenodd" clip-rule="evenodd" d="M118.056 12.7996L117.137 12.1551L116.126 11.6026L115.206 11.0501L114.195 10.5898L113.276 10.1294L112.356 9.76105L111.345 9.39275L110.426 9.02444L109.506 8.7482L108.587 8.47197L107.668 8.28781L106.748 8.10366L105.829 7.9195L104.91 7.82743H103.99L103.071 7.73535L102.152 7.82743L101.232 7.9195H100.405L99.4856 8.10366L98.6582 8.28781L97.7388 8.47197L96.8195 8.7482L95.9921 9.02444L95.1647 9.30066L94.2454 9.66898L93.418 10.0373L92.5906 10.4977L91.6712 10.9581L90.8438 11.5105L90.0164 12.063L89.189 12.6155L88.0858 13.6283L86.9826 14.6412L85.9714 15.7461L85.144 16.851L84.3166 17.9559L83.4892 19.0609L82.8456 20.1658L82.294 21.3628L81.7424 22.4677L81.3747 23.6647L81.007 24.7697L80.6392 25.9667L80.4554 27.1637L80.3634 28.2686L80.2715 29.4656V30.6626V31.7676L80.4554 32.9646L80.6392 34.0695L80.915 35.2665L81.2828 36.3714L81.6505 37.4764L82.1102 38.5813L82.6618 39.6862L83.2134 40.6991L83.8569 41.7119L84.5004 42.8168L85.3278 43.8297L86.1552 44.7505L86.9826 45.6712L87.902 46.6841L88.9132 47.5128L89.8326 48.1573L90.7519 48.7098L91.6712 49.1702L92.5906 49.7227L93.5099 50.091L94.5212 50.5513L95.4405 50.8276L96.3598 51.1959L97.3711 51.4721L98.2904 51.6563L99.2098 51.8404L100.221 52.0246L101.14 52.1167L102.06 52.2087H102.979H103.99L104.91 52.1167L105.829 52.0246L106.748 51.9325L107.668 51.7484L108.587 51.4721L109.506 51.288L110.426 50.9196L111.345 50.6434L112.172 50.183L113.092 49.8147L113.919 49.3543L114.838 48.8019L115.666 48.3415L116.493 47.6969L117.321 47.1445L118.148 46.4079L117.321 46.7762L116.493 47.0524L115.666 47.3286L114.93 47.6049L114.103 47.789L113.276 47.9732L112.448 48.1573L111.713 48.2494L110.885 48.4336H110.058L109.322 48.5256H108.495H107.668H106.932L106.197 48.4336L105.369 48.3415L104.634 48.2494L103.898 48.1573L103.163 47.9732L102.427 47.789L101.692 47.5128L100.957 47.2365L100.221 46.9603L99.4856 46.592L98.842 46.2237L98.1066 45.8554L97.463 45.395L96.7276 45.0267L96.084 44.4742L95.4405 44.0138L94.797 43.4614L94.1534 42.8168L93.5099 42.0802L92.8664 41.3436L92.2228 40.607L91.7632 39.8704L91.2116 39.0417L90.7519 38.305L90.3842 37.4764L90.0164 36.6476L89.6487 35.819L89.3729 34.9903L89.0971 34.1616L88.9132 33.3329L88.7294 32.5042L88.5455 31.6755L88.4536 30.8468V29.926V29.0973V28.2686L88.5455 27.3478L88.7294 26.5191L88.9132 25.5984L89.0971 24.7697L89.3729 23.941L89.7406 23.0202L90.0164 22.1915L90.4761 21.2707L90.9358 20.442L91.3954 19.6133L91.947 18.7846L92.5906 17.9559L93.2341 17.0352L93.8776 16.2986L94.5212 15.654L95.0728 15.1015L95.7163 14.5491L96.3598 14.0887L97.0034 13.6283L97.6469 13.1679L98.2904 12.7996L99.0259 12.4313L99.6695 12.063L100.405 11.7868L101.048 11.5105L101.784 11.3264L102.519 11.0501L103.255 10.9581L103.99 10.7739L104.726 10.6818L105.461 10.5898L106.289 10.4977H107.024H107.852L108.679 10.5898H109.506L110.242 10.6818L111.069 10.866L111.989 10.9581L112.816 11.1422L113.643 11.3264L114.563 11.6026L115.39 11.8788L116.309 12.1551L117.137 12.4313L118.056 12.7996Z" fill="white"/>
<path fill-rule="evenodd" clip-rule="evenodd" d="M120.631 20.4412L120.172 20.1649L119.62 19.7966L119.16 19.6125L118.701 19.3362L118.241 19.06L117.689 18.8759L117.322 18.6917L116.77 18.5075L116.31 18.4155L115.851 18.2313L115.391 18.1392L114.931 18.0471H114.472L114.012 17.9551H113.552H113.093H112.633H112.173L111.714 18.0471H111.254L110.886 18.1392L110.427 18.2313L109.967 18.4155L109.507 18.5075L109.048 18.6917L108.68 18.8759L108.22 19.06L107.853 19.3362L107.393 19.5204L106.933 19.7966L106.565 20.0728L106.106 20.3491L105.554 20.9016L105.003 21.3619L104.543 21.9144L104.083 22.4669L103.624 23.0193L103.256 23.5718L102.888 24.1243L102.612 24.7688L102.337 25.3213L102.153 25.8737L101.969 26.5183L101.785 27.0707L101.693 27.7153L101.601 28.2677V28.8202V29.4648V30.0172L101.693 30.5697L101.785 31.1221L101.969 31.7667L102.061 32.3191L102.337 32.8716L102.52 33.4241L102.796 33.9765L103.072 34.529L103.44 35.0815L103.716 35.5419L104.175 36.0022L104.543 36.5547L105.003 37.0151L105.462 37.4755L105.922 37.9359L106.382 38.2121L106.841 38.4883L107.393 38.7646L107.853 39.0408L108.312 39.2249L108.772 39.4091L109.232 39.5933L109.691 39.7774L110.243 39.8695L110.702 40.0537L111.162 40.1457H111.622L112.081 40.2378H112.633H113.093H113.552H114.012H114.472L114.931 40.1457L115.391 40.0537L115.851 39.9616L116.31 39.7774L116.77 39.6853L117.23 39.5012L117.689 39.317L118.149 39.0408L118.517 38.8566L118.977 38.5804L119.436 38.3042L119.804 38.0279L120.264 37.7517L120.723 37.3834L120.264 37.5676L119.896 37.6596L119.436 37.8438L119.068 37.9359L118.609 38.0279L118.241 38.12L117.781 38.2121L117.414 38.3042L117.046 38.3963H116.586H116.218L115.851 38.4883H115.391L115.023 38.3963H114.656H114.288L113.92 38.3042L113.46 38.2121L113.093 38.12L112.725 38.0279L112.357 37.9359L111.99 37.7517L111.622 37.6596L111.254 37.4755L110.978 37.2913L110.611 37.1072L110.243 36.923L109.875 36.6468L109.599 36.3706L109.232 36.1864L108.956 35.8181L108.588 35.5419L108.22 35.1735L107.944 34.8052L107.669 34.4369L107.393 34.0686L107.117 33.7003L106.933 33.2399L106.657 32.8716L106.474 32.4112L106.382 32.0429L106.198 31.5825L106.014 31.2142L105.922 30.7538L105.83 30.3855V29.9251L105.738 29.5568V29.0964V28.636V28.1757L105.83 27.8074V27.347L105.922 26.8866L106.106 26.4262L106.198 26.0579L106.382 25.5975L106.565 25.1371L106.749 24.7688L106.933 24.3084L107.209 23.848L107.485 23.4797L107.853 23.0193L108.128 22.651L108.496 22.1906L108.772 21.9144L109.048 21.5461L109.415 21.3619L109.691 21.0857L110.059 20.8095L110.335 20.6253L110.702 20.4412L110.978 20.257L111.346 20.0728L111.714 19.9808L112.081 19.7966L112.449 19.7045L112.817 19.6125L113.185 19.5204L113.552 19.4283L113.92 19.3362H114.288H114.748L115.115 19.2442L115.483 19.3362H115.943H116.31L116.678 19.4283H117.138L117.598 19.5204L117.965 19.6125L118.425 19.7045L118.885 19.7966L119.252 19.9808L119.712 20.0728L120.172 20.257L120.631 20.4412Z" fill="white"/>
<path fill-rule="evenodd" clip-rule="evenodd" d="M120.263 16.4819L119.528 16.1136L118.793 15.6532L118.149 15.2849L117.414 14.9166L116.678 14.5483L116.035 14.2721L115.299 13.9958L114.564 13.7196L113.92 13.5354L113.185 13.3513L112.541 13.1671L111.806 13.0751L111.162 12.983L110.427 12.8909L109.783 12.7988H109.14H108.496L107.761 12.8909L107.117 12.983L106.473 13.0751L105.83 13.1671L105.186 13.3513L104.543 13.5354L103.899 13.7196L103.256 13.9958L102.612 14.18L101.969 14.5483L101.325 14.8245L100.682 15.1928L100.038 15.5611L99.4865 15.9295L98.843 16.3898L98.0156 17.1265L97.1882 17.9552L96.4527 18.6918L95.8092 19.5205L95.1656 20.3492L94.614 21.1779L94.1544 22.0066L93.6947 22.8353L93.327 23.756L92.9592 24.5847L92.6834 25.4134L92.4996 26.3342L92.3157 27.1629L92.2238 28.0837L92.1318 28.9124V29.8331L92.2238 30.6618L92.3157 31.4905L92.4996 32.4113L92.6834 33.24L92.8673 34.0687L93.235 34.8974L93.5108 35.7261L93.8786 36.4627L94.3382 37.2914L94.7979 38.028L95.3495 38.8567L95.9011 39.5934L96.5446 40.33L97.1882 40.9745L97.8317 41.7111L98.5672 42.3557L99.3026 42.8161L99.9462 43.1844L100.682 43.5527L101.325 43.921L102.061 44.2893L102.704 44.5655L103.44 44.8418L104.175 45.0259L104.819 45.3021L105.554 45.3942L106.29 45.5784L106.933 45.6705L107.669 45.7625L108.404 45.8546H109.048H109.783L110.427 45.7625L111.162 45.6705L111.898 45.5784L112.541 45.4863L113.277 45.3021L113.92 45.118L114.564 44.8418L115.207 44.6576L115.943 44.3814L116.586 44.0131L117.23 43.7368L117.873 43.3685L118.517 42.9081L119.068 42.4477L119.712 41.9874L120.355 41.527L119.712 41.8032L119.16 41.9874L118.517 42.1715L117.873 42.3557L117.322 42.5398L116.678 42.724L116.126 42.8161L115.483 42.9081L114.931 43.0002L114.288 43.0923H113.736H113.185H112.541H111.989H111.438L110.886 43.0002L110.335 42.9081L109.691 42.8161L109.14 42.6319L108.588 42.5398L108.036 42.3557L107.577 42.1715L107.025 41.8953L106.473 41.7111L105.922 41.4349L105.462 41.0666L104.911 40.7903L104.359 40.5141L103.899 40.0537L103.44 39.6854L102.98 39.3171L102.52 38.8567L101.969 38.3043L101.509 37.7518L101.141 37.1993L100.682 36.6469L100.314 36.0944L99.9462 35.4499L99.6704 34.8974L99.3946 34.2529L99.1188 33.7004L98.9349 33.0559L98.751 32.4113L98.5672 31.8588L98.4752 31.2143L98.3833 30.5698L98.2914 29.9252V29.2807V28.6361V27.9916L98.3833 27.3471L98.4752 26.7025L98.5672 26.058L98.751 25.4134L98.9349 24.7689L99.2107 24.1243L99.4865 23.4798L99.7623 22.8353L100.13 22.1907L100.406 21.6383L100.866 20.9937L101.325 20.3492L101.785 19.7046L102.245 19.0601L102.704 18.6918L103.164 18.2314L103.624 17.8631L104.175 17.4948L104.635 17.1265L105.094 16.8502L105.554 16.4819L106.106 16.2978L106.565 16.0215L107.117 15.7453L107.669 15.5611L108.22 15.377L108.68 15.2849L109.231 15.1008L109.783 15.0087L110.335 14.9166H110.978L111.53 14.8245H112.081H112.725H113.277L113.92 14.9166L114.472 15.0087L115.115 15.1008L115.667 15.1928L116.31 15.2849L116.954 15.4691L117.597 15.6532L118.241 15.8374L118.976 16.0215L119.62 16.2978L120.263 16.4819Z" fill="white"/>
<path fill-rule="evenodd" clip-rule="evenodd" d="M153.635 6.90581L155.014 6.07711L156.393 5.24842L157.68 4.5118L159.059 3.86726L160.347 3.22271L161.726 2.67025L163.013 2.11778L164.3 1.6574L165.587 1.28909L166.874 0.920774L168.253 0.644546L169.54 0.368311L170.827 0.184159L172.022 0.092076L173.309 0H174.596H175.791L177.078 0.092076L178.366 0.184159L179.561 0.368311L180.848 0.644546L182.043 0.920774L183.238 1.28909L184.433 1.6574L185.628 2.11778L186.823 2.57817L188.019 3.13063L189.214 3.77517L190.409 4.41972L191.604 5.06426L192.707 5.89296L193.902 6.62958L195.465 8.10282L196.936 9.57605L198.315 11.0493L199.602 12.6146L200.797 14.0878L201.809 15.6532L202.728 17.2185L203.555 18.8759L204.291 20.4412L204.842 22.0065L205.394 23.6639L205.762 25.3213L206.037 26.8866L206.221 28.544L206.405 30.2014V31.7667L206.313 33.4241L206.129 34.9894L205.762 36.6468L205.486 38.2121L205.026 39.7775L204.475 41.3428L203.831 42.816L203.096 44.3813L202.268 45.8546L201.349 47.3278L200.43 48.709L199.326 50.0901L198.223 51.4713L197.028 52.7604L195.741 54.0495L194.362 55.3385L193.075 56.1672L191.788 56.9038L190.501 57.6405L189.122 58.285L187.835 58.9296L186.548 59.482L185.169 59.9424L183.882 60.4028L182.594 60.7711L181.215 61.1394L179.928 61.3236L178.641 61.5998L177.262 61.6919L175.975 61.7839L174.688 61.876L173.309 61.7839L172.022 61.6919L170.735 61.5998L169.448 61.4156L168.161 61.1394L166.874 60.8632L165.587 60.4949L164.392 60.1266L163.105 59.5741L161.817 59.1137L160.622 58.4692L159.427 57.8246L158.232 57.1801L157.037 56.4435L155.842 55.6148L154.739 54.694L153.543 53.7732L154.739 54.2336L155.842 54.694L156.945 55.0623L158.14 55.4306L159.243 55.7068L160.347 55.9831L161.45 56.1672L162.553 56.3514L163.748 56.5355L164.851 56.6276L165.954 56.7197L167.058 56.8118H168.069L169.172 56.7197L170.275 56.6276L171.379 56.5355L172.39 56.3514L173.401 56.1672L174.504 55.891L175.516 55.6148L176.527 55.2465L177.538 54.8781L178.549 54.5098L179.561 54.0495L180.572 53.497L181.491 53.0366L182.503 52.3921L183.422 51.7475L184.341 51.103L185.261 50.3664L186.18 49.6297L187.007 48.801L187.927 47.7882L188.846 46.7753L189.581 45.6704L190.409 44.5655L191.052 43.5526L191.696 42.4477L192.339 41.3428L192.799 40.1458L193.259 39.0408L193.718 37.9359L194.086 36.7389L194.362 35.5419L194.638 34.437L194.73 33.2399L194.914 32.0429V30.8459V29.6489V28.4519L194.73 27.2549L194.546 26.0579L194.362 24.8609L193.994 23.5718L193.626 22.3748L193.167 21.1778L192.707 19.9808L192.156 18.7838L191.512 17.5868L190.777 16.3898L190.041 15.1928L189.214 14.0878L188.386 12.8908L187.375 11.7859L186.548 10.9572L185.72 10.1285L184.801 9.3919L183.973 8.74736L183.054 8.10282L182.135 7.45827L181.215 6.90581L180.296 6.44542L179.285 5.98503L178.366 5.52465L177.354 5.15633L176.343 4.78803L175.332 4.5118L174.32 4.32764L173.309 4.14348L172.206 3.95933L171.195 3.86726L170.091 3.77517H168.988H167.885H166.782L165.679 3.86726L164.484 4.05141L163.38 4.23556L162.185 4.41972L160.99 4.60387L159.795 4.97218L158.6 5.24842L157.405 5.61672L156.21 5.98503L154.922 6.44542L153.635 6.90581Z" fill="white"/>
<path fill-rule="evenodd" clip-rule="evenodd" d="M152.256 12.7996L153.267 12.1551L154.186 11.6026L155.198 11.0501L156.117 10.5898L157.128 10.1294L158.048 9.76105L158.967 9.39275L159.978 9.02444L160.898 8.7482L161.817 8.47197L162.736 8.28781L163.656 8.10366L164.575 7.9195L165.494 7.82743H166.414L167.333 7.73535L168.252 7.82743L169.08 7.9195H169.999L170.918 8.10366L171.746 8.28781L172.665 8.47197L173.492 8.7482L174.412 9.02444L175.239 9.30066L176.159 9.66898L176.986 10.0373L177.813 10.4977L178.641 10.9581L179.56 11.5105L180.388 12.063L181.123 12.6155L182.318 13.6283L183.421 14.6412L184.341 15.7461L185.26 16.851L186.087 17.9559L186.823 19.0609L187.466 20.1658L188.11 21.3628L188.57 22.4677L189.029 23.6647L189.397 24.7697L189.673 25.9667L189.949 27.1637L190.041 28.2686L190.132 29.4656V30.6626L190.041 31.7676L189.949 32.9646L189.765 34.0695L189.489 35.2665L189.121 36.3714L188.753 37.4764L188.294 38.5813L187.742 39.6862L187.191 40.6991L186.547 41.7119L185.904 42.8168L185.076 43.8297L184.249 44.7505L183.421 45.6712L182.502 46.6841L181.491 47.5128L180.571 48.1573L179.652 48.7098L178.733 49.1702L177.813 49.7227L176.802 50.091L175.883 50.5513L174.963 50.8276L174.044 51.1959L173.033 51.4721L172.113 51.6563L171.194 51.8404L170.183 52.0246L169.264 52.1167L168.344 52.2087H167.333H166.414L165.494 52.1167L164.575 52.0246L163.656 51.9325L162.736 51.7484L161.817 51.4721L160.898 51.288L159.978 50.9196L159.059 50.6434L158.232 50.183L157.312 49.8147L156.485 49.3543L155.565 48.8019L154.738 48.3415L153.911 47.6969L153.083 47.1445L152.256 46.4079L153.083 46.7762L153.911 47.0524L154.646 47.3286L155.474 47.6049L156.301 47.789L157.128 47.9732L157.956 48.1573L158.691 48.2494L159.519 48.4336H160.346L161.081 48.5256H161.909H162.644H163.472L164.207 48.4336L164.943 48.3415L165.77 48.2494L166.506 48.1573L167.241 47.9732L167.976 47.789L168.712 47.5128L169.447 47.2365L170.183 46.9603L170.918 46.592L171.562 46.2237L172.297 45.8554L172.941 45.395L173.676 45.0267L174.32 44.4742L174.963 44.0138L175.607 43.4614L176.25 42.8168L176.894 42.0802L177.538 41.3436L178.089 40.607L178.641 39.8704L179.192 39.0417L179.652 38.305L180.02 37.4764L180.388 36.6476L180.755 35.819L181.031 34.9903L181.307 34.1616L181.491 33.3329L181.675 32.5042L181.767 31.6755L181.858 30.8468L181.95 29.926V29.0973L181.858 28.2686L181.767 27.3478L181.675 26.5191L181.491 25.5984L181.215 24.7697L181.031 23.941L180.663 23.0202L180.296 22.1915L179.928 21.2707L179.468 20.442L179.008 19.6133L178.457 18.7846L177.813 17.9559L177.17 17.0352L176.526 16.2986L175.883 15.654L175.331 15.1015L174.688 14.5491L174.044 14.0887L173.401 13.6283L172.757 13.1679L172.113 12.7996L171.378 12.4313L170.734 12.063L169.999 11.7868L169.264 11.5105L168.62 11.3264L167.885 11.0501L167.149 10.9581L166.414 10.7739L165.678 10.6818L164.851 10.5898L164.115 10.4977H163.38H162.552L161.725 10.5898H160.898L160.07 10.6818L159.243 10.866L158.415 10.9581L157.588 11.1422L156.761 11.3264L155.841 11.6026L155.014 11.8788L154.095 12.1551L153.175 12.4313L152.256 12.7996Z" fill="white"/>
<path fill-rule="evenodd" clip-rule="evenodd" d="M149.773 20.4412L150.233 20.1649L150.692 19.7966L151.244 19.6125L151.704 19.3362L152.163 19.06L152.623 18.8759L153.083 18.6917L153.634 18.5075L154.094 18.4155L154.554 18.2313L155.013 18.1392L155.473 18.0471H155.933L156.392 17.9551H156.852H157.312H157.771H158.231L158.691 18.0471H159.058L159.518 18.1392L159.978 18.2313L160.437 18.4155L160.897 18.5075L161.265 18.6917L161.724 18.8759L162.184 19.06L162.552 19.3362L163.012 19.5204L163.379 19.7966L163.839 20.0728L164.299 20.3491L164.85 20.9016L165.402 21.3619L165.861 21.9144L166.321 22.4669L166.781 23.0193L167.149 23.5718L167.424 24.1243L167.7 24.7688L167.976 25.3213L168.252 25.8737L168.436 26.5183L168.528 27.0707L168.711 27.7153V28.2677L168.803 28.8202V29.4648L168.711 30.0172V30.5697L168.619 31.1221L168.436 31.7667L168.252 32.3191L168.068 32.8716L167.884 33.4241L167.608 33.9765L167.332 34.529L166.965 35.0815L166.597 35.5419L166.229 36.0022L165.861 36.5547L165.402 37.0151L164.942 37.4755L164.482 37.9359L164.023 38.2121L163.471 38.4883L163.012 38.7646L162.552 39.0408L162.092 39.2249L161.633 39.4091L161.173 39.5933L160.713 39.7774L160.162 39.8695L159.702 40.0537L159.242 40.1457H158.783L158.231 40.2378H157.771H157.312H156.852H156.392H155.933L155.473 40.1457L155.013 40.0537L154.554 39.9616L154.094 39.7774L153.634 39.6853L153.175 39.5012L152.715 39.317L152.255 39.0408L151.796 38.8566L151.428 38.5804L150.968 38.3042L150.509 38.0279L150.141 37.7517L149.681 37.3834L150.141 37.5676L150.509 37.6596L150.968 37.8438L151.336 37.9359L151.796 38.0279L152.163 38.12L152.623 38.2121L152.991 38.3042L153.358 38.3963H153.818H154.186L154.554 38.4883H154.921L155.381 38.3963H155.749H156.116L156.484 38.3042L156.852 38.2121L157.312 38.12L157.587 38.0279L158.047 37.9359L158.415 37.7517L158.691 37.6596L159.058 37.4755L159.426 37.2913L159.794 37.1072L160.162 36.923L160.529 36.6468L160.805 36.3706L161.173 36.1864L161.449 35.8181L161.816 35.5419L162.092 35.1735L162.46 34.8052L162.736 34.4369L163.012 34.0686L163.287 33.7003L163.471 33.2399L163.655 32.8716L163.931 32.4112L164.023 32.0429L164.207 31.5825L164.299 31.2142L164.482 30.7538L164.574 30.3855V29.9251L164.666 29.5568V29.0964V28.636V28.1757L164.574 27.8074L164.482 27.347L164.391 26.8866L164.299 26.4262L164.207 26.0579L164.023 25.5975L163.839 25.1371L163.655 24.7688L163.379 24.3084L163.195 23.848L162.92 23.4797L162.552 23.0193L162.276 22.651L161.908 22.1906L161.633 21.9144L161.357 21.5461L160.989 21.3619L160.713 21.0857L160.345 20.8095L159.978 20.6253L159.702 20.4412L159.334 20.257L158.966 20.0728L158.691 19.9808L158.323 19.7966L157.955 19.7045L157.587 19.6125L157.22 19.5204L156.852 19.4283L156.484 19.3362H156.025H155.657L155.289 19.2442L154.921 19.3362H154.462H154.094L153.634 19.4283H153.267L152.807 19.5204L152.347 19.6125L151.979 19.7045L151.52 19.7966L151.06 19.9808L150.692 20.0728L150.233 20.257L149.773 20.4412Z" fill="white"/>
<path fill-rule="evenodd" clip-rule="evenodd" d="M150.141 16.4819L150.877 16.1136L151.52 15.6532L152.256 15.2849L152.991 14.9166L153.635 14.5483L154.37 14.2721L155.106 13.9958L155.749 13.7196L156.485 13.5354L157.128 13.3513L157.864 13.1671L158.507 13.0751L159.243 12.983L159.886 12.8909L160.622 12.7988H161.265H161.909L162.552 12.8909L163.288 12.983L163.931 13.0751L164.575 13.1671L165.218 13.3513L165.862 13.5354L166.505 13.7196L167.149 13.9958L167.792 14.18L168.436 14.5483L169.08 14.8245L169.723 15.1928L170.367 15.5611L170.918 15.9295L171.562 16.3898L172.389 17.1265L173.217 17.9552L173.952 18.6918L174.596 19.5205L175.239 20.3492L175.791 21.1779L176.25 22.0066L176.71 22.8353L177.078 23.756L177.446 24.5847L177.721 25.4134L177.905 26.3342L178.089 27.1629L178.181 28.0837L178.273 28.9124V29.8331L178.181 30.6618L178.089 31.4905L177.905 32.4113L177.721 33.24L177.446 34.0687L177.17 34.8974L176.894 35.7261L176.434 36.4627L176.067 37.2914L175.515 38.028L175.055 38.8567L174.504 39.5934L173.86 40.33L173.217 40.9745L172.573 41.7111L171.838 42.3557L171.102 42.8161L170.459 43.1844L169.723 43.5527L169.08 43.921L168.344 44.2893L167.609 44.5655L166.965 44.8418L166.23 45.0259L165.494 45.3021L164.851 45.3942L164.115 45.5784L163.38 45.6705L162.736 45.7625L162.001 45.8546H161.265H160.622L159.886 45.7625L159.243 45.6705L158.507 45.5784L157.864 45.4863L157.128 45.3021L156.485 45.118L155.841 44.8418L155.106 44.6576L154.462 44.3814L153.819 44.0131L153.175 43.7368L152.532 43.3685L151.888 42.9081L151.244 42.4477L150.693 41.9874L150.049 41.527L150.693 41.8032L151.244 41.9874L151.888 42.1715L152.532 42.3557L153.083 42.5398L153.635 42.724L154.278 42.8161L154.922 42.9081L155.473 43.0002L156.025 43.0923H156.669H157.22H157.772H158.415H158.967L159.518 43.0002L160.07 42.9081L160.622 42.8161L161.173 42.6319L161.817 42.5398L162.276 42.3557L162.828 42.1715L163.38 41.8953L163.931 41.7111L164.483 41.4349L164.943 41.0666L165.494 40.7903L165.954 40.5141L166.505 40.0537L166.965 39.6854L167.425 39.3171L167.884 38.8567L168.436 38.3043L168.896 37.7518L169.263 37.1993L169.723 36.6469L170.091 36.0944L170.367 35.4499L170.734 34.8974L171.01 34.2529L171.286 33.7004L171.47 33.0559L171.654 32.4113L171.838 31.8588L171.929 31.2143L172.021 30.5698L172.113 29.9252V29.2807V28.6361V27.9916L172.021 27.3471L171.929 26.7025L171.838 26.058L171.654 25.4134L171.47 24.7689L171.194 24.1243L170.918 23.4798L170.642 22.8353L170.275 22.1907L169.907 21.6383L169.539 20.9937L169.08 20.3492L168.62 19.7046L168.068 19.0601L167.609 18.6918L167.149 18.2314L166.781 17.8631L166.23 17.4948L165.77 17.1265L165.31 16.8502L164.851 16.4819L164.299 16.2978L163.747 16.0215L163.288 15.7453L162.736 15.5611L162.185 15.377L161.725 15.2849L161.173 15.1008L160.622 15.0087L159.978 14.9166H159.427L158.875 14.8245H158.323H157.68H157.128L156.485 14.9166L155.933 15.0087L155.29 15.1008L154.646 15.1928L154.002 15.2849L153.359 15.4691L152.715 15.6532L152.072 15.8374L151.428 16.0215L150.785 16.2978L150.141 16.4819Z" fill="white"/>
<path fill-rule="evenodd" clip-rule="evenodd" d="M137.271 20.4411L137.547 20.0728L137.822 19.7045L138.098 19.4282L138.374 19.152L138.926 18.6916L139.385 18.2312L139.661 17.955L139.937 17.6788L140.213 17.4025L140.397 17.1263L140.58 16.8501L140.856 16.5738L141.132 16.2055L141.408 15.8372L141.5 15.7451L141.592 15.561L141.684 15.3768L141.776 15.1927L142.051 14.7323L142.235 14.2719L142.511 13.8115L142.695 13.3511L142.879 12.8907L142.971 12.5224L143.063 12.3383V12.1541V11.97V11.7858L143.155 11.4175L143.246 11.0492V10.6809V10.2205V9.85219V9.3918V9.02349V8.65518V8.47103V8.28687V8.10272V7.91856V7.7344V7.55025L143.155 7.45817L143.063 7.36609L142.971 7.27402L142.879 7.18194L142.787 7.08987L142.695 6.99778V6.90571L142.327 6.81363L141.867 6.72155L141.408 6.62948L140.948 6.5374L140.488 6.44532L140.029 6.35324L139.569 6.26117L139.109 6.16909L138.65 6.07701L138.19 5.98493L137.73 5.89286L137.271 5.80078H136.811H136.351H135.892H135.432H134.972H134.513H134.053H133.593H133.134L132.674 5.89286L132.214 5.98493L131.755 6.07701L131.295 6.16909L130.927 6.26117L130.376 6.35324L129.916 6.44532L129.456 6.5374L128.997 6.72155L128.537 6.90571L128.077 7.08987H127.985V7.18194V7.36609V7.55025V7.7344V7.91856L127.894 8.19479V8.47103V8.74725V9.02349V9.29972V9.57595V9.94426V10.3126V10.6809V11.0492L127.985 11.4175L128.077 11.7858L128.169 12.1541L128.261 12.5224L128.353 12.7987L128.445 13.0749L128.537 13.259L128.629 13.4432L128.721 13.6274L128.813 13.8115L128.905 14.0877L129.089 14.4561L129.181 14.6402L129.273 14.8244L129.364 15.0085L129.456 15.2847L129.548 15.4689L129.732 15.6531L129.824 15.8372L130.008 16.0214L130.284 16.3897L130.56 16.758L130.927 17.1263L131.295 17.4946L131.939 18.2312L132.582 18.9678L132.858 19.3362L133.226 19.7045L133.501 20.0728L133.777 20.4411V53.1286L128.169 61.5997H142.879L137.363 53.0365L137.271 20.4411ZM135.432 6.44532H136.168H136.903H137.639H138.282L138.926 6.5374L139.569 6.62948L140.121 6.72155L140.672 6.81363L141.132 6.90571L141.592 6.99778H141.776L141.959 7.08987L142.143 7.18194L142.327 7.27402H142.511L142.603 7.36609L142.695 7.45817H142.787L142.879 7.55025L142.971 7.64233V7.7344V7.82648V7.91856V8.01064L142.879 8.10272H142.787L142.695 8.19479L142.603 8.28687L142.511 8.37894L142.327 8.47103L142.143 8.5631H141.959L141.776 8.65518L141.592 8.74725L141.132 8.83933L140.672 8.93141L140.121 9.02349L139.569 9.11557L138.926 9.20765L138.282 9.29972H137.639H136.903H136.168H135.432H134.697H133.961H133.226H132.582L131.939 9.20765L131.295 9.11557L130.743 9.02349L130.192 8.93141L129.732 8.83933L129.273 8.74725L129.089 8.65518L128.905 8.5631H128.721L128.537 8.47103L128.445 8.37894L128.353 8.28687L128.261 8.19479L128.169 8.10272H128.077L127.985 8.01064V7.91856V7.82648V7.7344V7.64233L128.077 7.55025L128.169 7.45817H128.261L128.353 7.36609L128.445 7.27402H128.537L128.721 7.18194L128.905 7.08987L129.089 6.99778H129.273L129.732 6.90571L130.192 6.81363L130.743 6.72155L131.295 6.62948L131.939 6.5374L132.582 6.44532H133.226H133.961H134.697H135.432Z" fill="white"/>
<path fill-rule="evenodd" clip-rule="evenodd" d="M133.685 23.2034L133.502 23.1113L133.318 23.0192L133.134 22.9271L132.95 22.835H132.858L132.766 22.743H132.674H132.582L132.49 22.6509L132.398 22.5588L132.306 22.4667L132.215 22.3747L131.755 22.0984L131.387 21.8222L131.019 21.546L130.652 21.1777L130.284 20.8093L129.916 20.441L129.548 20.0727L129.181 19.7044L128.905 19.3361L128.537 18.9678L128.261 18.5995L127.986 18.2312L127.71 17.8629L127.434 17.4946L127.158 17.1262L126.882 16.7579L126.607 16.3896L126.423 16.0213L126.239 15.653L126.055 15.1926L125.871 14.8243L125.687 14.3639L125.503 13.9956L125.411 13.6273L125.32 13.1669L125.228 12.7065L125.136 12.2461L125.044 11.7858L124.952 11.3254V10.865V10.4046V9.94421V9.5759V9.2076V8.83928L125.044 8.47098L125.136 8.10267L125.228 7.73435L125.32 7.45812L125.411 7.18189L125.503 6.90566L125.595 6.62943L125.687 6.35319L125.779 6.07696L125.871 5.89281L125.963 5.70866L126.055 5.5245L126.147 5.34034L126.239 5.15619L126.423 4.97203L126.515 4.87996L126.699 4.78788L126.882 4.6958L127.066 4.60372L127.25 4.51165H127.434L127.618 4.41957H127.802H127.986H128.169H128.353L128.537 4.51165L128.721 4.60372L128.905 4.6958L133.869 7.36604L132.766 6.26112L134.329 6.81358L132.95 5.15619L132.858 4.78788L132.766 4.41957L132.674 4.05126L132.582 3.68295L132.49 3.31464L132.398 3.03841L132.306 2.76217L132.215 2.6701L132.031 2.39386L131.847 2.11764L131.663 1.93348L131.479 1.74932L131.295 1.56517L131.111 1.38101L130.927 1.19686L130.744 1.0127L130.468 0.920627L130.192 0.828551L129.916 0.736475L129.64 0.644399L129.365 0.552316L129.089 0.46024L128.813 0.368164H128.537H128.261H127.986H127.618H127.342H126.974H126.607H126.239H125.871L125.32 0.644399L124.86 1.0127L124.4 1.38101L123.941 1.74932L123.573 2.30179L123.205 2.94633L122.929 3.59087L122.653 4.32749L122.378 5.06411L122.194 5.89281L122.01 6.72151L121.918 7.64228V8.56305V9.48382V10.4046L122.01 11.4175L122.194 12.4303L122.378 13.4432L122.653 14.456L123.021 15.4688L123.389 16.4817L123.849 17.4946L124.4 18.5074L124.952 19.5203L125.595 20.5331L126.331 21.4539L127.158 22.3747L128.078 23.2954L129.089 24.1241L130.1 24.9528L131.203 25.7815L132.398 26.5181L132.858 26.7023L133.318 26.9785L133.685 27.2548L134.053 27.4389L134.421 27.6231L134.789 27.8072L135.156 28.0835L135.524 28.2676L135.708 28.1755L135.892 27.9914L136.168 27.8993L136.352 27.7151L136.627 27.6231L136.811 27.531L136.995 27.4389L137.271 27.3468V29.7408L137.731 30.1092L138.19 30.4775L138.558 30.8458L138.926 31.2141L139.293 31.5824L139.569 31.9507L139.845 32.319L140.121 32.6873L140.305 33.0556L140.489 33.4239L140.672 33.7923L140.764 34.1606L140.856 34.5289L140.948 34.8972V35.2655V35.6338V36.0021L140.856 36.3704L140.764 36.7387L140.672 37.107L140.489 37.4754L140.305 37.8437L140.029 38.212L139.753 38.5803L139.477 38.9486L139.11 39.3169L138.742 39.6852L138.374 40.0535L137.914 40.4218L137.455 40.7901L136.903 41.1584L136.352 41.5268L135.708 41.8951L135.064 42.2634L134.513 42.6317L133.961 43L133.41 43.3683L132.95 43.7366L132.49 44.1049L132.031 44.4732L131.663 44.8415L131.295 45.2098L130.927 45.5782L130.652 45.9465L130.376 46.3148L130.1 46.7752L129.824 47.1435L129.548 47.5118L129.365 47.8801L129.181 48.2484L128.997 48.7088L128.905 49.1692L128.813 49.6296L128.721 50.09V50.5503V51.0107V51.4711V51.9315V52.3919L128.813 52.8523L128.905 53.3127L128.997 53.773L129.089 54.2334L129.273 54.6938L129.365 54.3255L129.457 53.9572L129.548 53.5889L129.64 53.2206L129.732 52.8523L129.824 52.484L129.916 52.1157L130.008 51.7473L130.1 51.379L130.284 51.0107L130.468 50.7345L130.652 50.3662L130.836 49.9979L131.019 49.7216L131.203 49.3533L131.387 49.0771L131.571 48.8009L131.755 48.5246L132.031 48.2484L132.306 47.9722L132.582 47.6959L132.858 47.4197L133.134 47.1435L133.41 46.8672L133.685 46.591L134.053 46.3148L134.421 46.0386L134.789 45.7623L135.156 45.4861L135.524 45.2098L135.892 44.9336L136.352 44.7495L137.547 44.0128L138.65 43.2762L139.661 42.5396L140.58 41.803L141.316 41.0664L141.959 40.3297L142.511 39.5931L142.971 38.8565L143.338 38.1199L143.706 37.3833L143.982 36.6466L144.166 35.91L144.258 35.2655L144.35 34.6209V33.9764L144.258 33.3319L144.166 32.6873L143.982 32.1349L143.798 31.5824L143.614 31.0299L143.338 30.5695L143.063 30.1092L142.787 29.6488L142.511 29.1884L142.235 28.8201L141.959 28.4518L141.684 28.0835L141.408 27.8072L141.132 27.531L140.948 27.2548L140.672 27.0706L140.489 26.8865L139.569 26.2419L138.742 25.6894L138.006 25.2291L137.363 24.8608L136.811 24.4924L136.352 24.2162L135.892 23.94L135.524 23.7558L135.248 23.8479L135.064 23.94L134.881 24.032L134.697 24.1241L134.513 24.2162L134.329 24.3083L134.145 24.4004L133.961 24.4924V23.2034H133.685Z" fill="white"/>
<path fill-rule="evenodd" clip-rule="evenodd" d="M135.893 23.6635L135.617 23.8477L135.525 23.9398L135.617 23.8477L135.893 23.6635ZM135.893 23.6635H135.985H135.893ZM136.077 23.6635L136.261 23.5715L136.444 23.4794L136.628 23.3873L136.812 23.2952L136.996 23.2031L137.18 23.1111L137.364 23.019L137.548 22.9269H137.64L137.731 22.8348H137.823H137.915L138.007 22.7428L138.099 22.6507L138.191 22.5586L138.283 22.4665L138.651 22.1903L139.019 21.9141L139.386 21.6378L139.754 21.2695L140.122 20.9012L140.49 20.5329L140.765 20.1646L141.133 19.7963L141.409 19.428L141.685 19.0597L141.96 18.6913L142.236 18.323L142.512 17.9547L142.788 17.5864L143.064 17.2181L143.339 16.8498L143.615 16.4815L143.799 16.1132L143.983 15.7449L144.167 15.2845L144.351 14.9162L144.535 14.4558L144.718 14.0875L144.81 13.7192L144.994 13.2588L145.086 12.7984L145.178 12.338L145.27 11.8776L145.362 11.4172L145.454 10.9569L145.546 10.4965V10.0361V9.66778V9.29946L145.454 8.93115L145.362 8.56284L145.27 8.19453L145.178 7.82622L145.086 7.54999L144.994 7.27376L144.902 6.99752L144.81 6.7213L144.718 6.44506L144.627 6.16883L144.535 5.98467L144.443 5.80052L144.351 5.61636L144.259 5.43221L144.167 5.24806L143.983 5.0639L143.799 4.97182L143.707 4.87975L143.523 4.78767L143.339 4.69559L143.156 4.60351H142.972L142.788 4.51144H142.604H142.42H142.236H142.052L141.869 4.60351L141.685 4.69559L141.501 4.78767L136.444 7.45791L137.548 6.35299L135.985 6.90545L137.364 5.24806L137.456 4.87975L137.548 4.51144L137.64 4.14313L137.731 3.77482L137.823 3.40651L137.915 3.13028L138.007 2.85404L138.191 2.57781L138.375 2.30158L138.559 2.02535L138.743 1.84119L138.927 1.65704L139.11 1.47288L139.294 1.28873L139.57 1.10458L139.754 0.920418L140.03 0.828342L140.306 0.736266L140.581 0.64419L140.857 0.552107L141.133 0.460031L141.409 0.367955L141.685 0.275879H141.96H142.236H142.512H142.88H143.156H143.523H143.891H144.259H144.627L145.178 0.552107L145.73 0.920418L146.189 1.28873L146.649 1.74912L147.017 2.30158L147.385 2.94612L147.66 3.59066L147.936 4.32729L148.212 5.0639L148.396 5.8926L148.58 6.7213L148.672 7.64207L148.764 8.56284V9.48361V10.4044L148.672 11.4172L148.488 12.4301L148.304 13.4429L148.028 14.4558L147.66 15.4686L147.293 16.4815L146.833 17.4944L146.281 18.5072L145.638 19.5201L144.994 20.5329L144.259 21.4537L143.431 22.3744L142.512 23.2952L141.593 24.1239L140.581 24.9526L139.478 25.7813L138.283 26.5179L137.456 26.9783L136.628 27.4387L135.893 27.8991L135.157 28.3595L134.514 28.8199L133.87 29.2802L133.319 29.7406L132.767 30.201L132.215 30.6614L131.756 31.1218L131.388 31.5822L131.02 32.0426L130.653 32.503L130.377 32.9633L130.193 33.4237L130.009 33.8841L129.917 34.3445L129.825 34.8049V35.2653V35.7257V36.1861L129.917 36.6464L130.009 37.1068L130.193 37.5672L130.377 38.0276L130.653 38.488L131.02 38.9484L131.388 39.3167L131.756 39.7771L132.215 40.2375L132.767 40.6979L133.319 41.1582V43.6443L135.065 42.3552L135.617 42.7236L136.169 43.0919L136.72 43.4602L137.18 43.8285L137.64 44.1968L138.099 44.5651L138.559 44.9334L138.927 45.3017L139.294 45.67L139.662 46.0383L139.938 46.4066L140.214 46.775L140.49 47.1433L140.765 47.5116L140.949 47.8799L141.133 48.2482L141.317 48.6165L141.501 48.9848L141.593 49.3531L141.685 49.8135L141.777 50.1818L141.869 50.6422V51.0105V51.4709V51.9313V52.3917L141.777 52.8521L141.685 53.3125L141.593 53.7728L141.501 54.2332L141.409 54.6936L141.225 55.154L141.133 54.6015L140.949 54.0491L140.765 53.4966L140.581 52.9441L140.49 52.6679L140.398 52.3917L140.306 52.1154L140.214 51.8392L140.122 51.563L139.938 51.2868L139.846 51.0105L139.754 50.7343L139.57 50.458L139.386 50.1818L139.202 49.9056L139.019 49.6294L138.835 49.3531L138.651 49.0769L138.467 48.8007L138.283 48.5244L138.099 48.3403L137.915 48.064L137.731 47.8799L137.456 47.6957L137.272 47.5116L136.996 47.2353L136.72 47.0512L136.444 46.867V44.1047L134.606 45.3017L134.422 45.2096L134.238 45.1176L134.054 45.0255L133.87 44.9334L132.675 44.1968L131.572 43.4602L130.561 42.7236L129.641 41.9869L128.906 41.2503L128.262 40.5137L127.711 39.7771L127.159 39.0405L126.791 38.3038L126.516 37.5672L126.24 36.8306L126.056 36.094L125.964 35.4494L125.872 34.8049V34.1604L125.964 33.5158L126.056 32.8713L126.24 32.3188L126.424 31.7663L126.608 31.2139L126.883 30.7535L127.159 30.2931L127.435 29.8327L127.711 29.3723L127.987 29.004L128.262 28.6357L128.538 28.2674L128.814 27.9912L129.09 27.7149L129.366 27.4387L129.549 27.2545L129.733 27.0704L130.377 26.61L130.928 26.2417L131.48 25.8734L131.94 25.5972L132.399 25.3209L132.767 25.0447L133.135 24.7685L133.503 24.5843L133.87 24.4002L134.146 24.216L134.422 24.0318L134.698 23.9398L135.157 23.7556L136.077 23.6635Z" fill="white"/>
<path d="M13.4543 111.597C15.5602 111.597 17.4906 111.831 19.2455 112.241C21.0004 112.651 22.4628 113.354 23.6912 114.233C24.9197 115.112 25.8556 116.284 26.5576 117.69C27.2596 119.096 27.552 120.736 27.552 122.611V136.497C27.552 137.551 27.2595 138.43 26.7331 139.016C26.2066 139.661 25.5046 140.188 24.7442 140.657C23.4573 141.418 21.9363 142.004 20.0644 142.414C18.251 142.824 16.1451 143 13.8053 143C9.59349 143 6.25917 142.18 3.74381 140.598C1.22844 138.957 0 136.497 0 133.216C0 130.404 0.818958 128.236 2.51537 126.771C4.21178 125.306 6.78564 124.369 10.237 124.017L18.368 123.139V122.436C18.368 121.147 17.8415 120.151 16.7886 119.565C15.7357 118.979 14.2147 118.627 12.1674 118.627C10.5879 118.627 9.06702 118.803 7.6046 119.155C6.08368 119.506 4.79675 119.975 3.56831 120.444C3.10034 120.092 2.63236 119.623 2.33988 118.92C1.98889 118.217 1.81341 117.514 1.81341 116.752C1.81341 114.936 2.74936 113.647 4.62126 112.886C5.7912 112.417 7.19512 112.124 8.77453 111.89C10.3539 111.714 11.9334 111.597 13.4543 111.597ZM13.8053 136.087C14.6827 136.087 15.6187 135.969 16.4961 135.794C17.3736 135.618 18.017 135.384 18.485 135.091V129.466L13.4543 129.876C12.1674 129.993 11.1144 130.286 10.2955 130.755C9.4765 131.224 9.12552 131.927 9.12552 132.864C9.12552 133.86 9.4765 134.622 10.237 135.208C10.9389 135.794 12.1089 136.087 13.8053 136.087Z" fill="white"/>
<path d="M40.7139 142.355C39.9534 142.472 39.1345 142.531 38.257 142.531C36.4436 142.531 35.0982 142.238 34.2792 141.652C33.4602 141.066 33.0508 139.894 33.0508 138.195V102.164C33.5188 102.046 34.1037 101.929 34.8057 101.812C35.5661 101.695 36.3851 101.636 37.2625 101.636C39.0759 101.636 40.4214 101.929 41.2403 102.574C42.0593 103.218 42.4103 104.331 42.4103 106.089V113.178C43.2877 112.768 44.2237 112.417 45.3351 112.182C46.4466 111.889 47.6165 111.772 48.8449 111.772C52.7642 111.772 55.8646 112.768 58.0874 114.76C60.3103 116.752 61.4218 119.74 61.4218 123.665V142.121C61.0123 142.238 60.4273 142.355 59.7253 142.472C58.9649 142.59 58.1459 142.648 57.2685 142.648C55.4551 142.648 54.1096 142.355 53.2907 141.769C52.4717 141.183 52.0623 140.012 52.0623 138.313V124.251C52.0623 122.435 51.5943 121.088 50.6583 120.326C49.7224 119.564 48.5524 119.154 47.1485 119.154C46.2126 119.154 45.3351 119.271 44.5747 119.564C43.8142 119.857 43.0537 120.15 42.4103 120.502V142.179C42.0008 142.121 41.4158 142.238 40.7139 142.355Z" fill="white"/>
<path d="M78.9128 111.597C81.0187 111.597 82.9491 111.831 84.704 112.241C86.4589 112.651 87.9213 113.354 89.1497 114.233C90.3782 115.112 91.3141 116.284 92.0161 117.69C92.718 119.096 93.0105 120.736 93.0105 122.611V136.497C93.0105 137.551 92.718 138.43 92.1916 139.016C91.6651 139.661 90.9631 140.188 90.2027 140.657C88.9157 141.418 87.3948 142.004 85.5229 142.414C83.7095 142.824 81.6036 143 79.2638 143C75.052 143 71.7177 142.18 69.2023 140.598C66.6869 138.957 65.4585 136.497 65.4585 133.216C65.4585 130.404 66.2774 128.236 67.9739 126.771C69.6703 125.306 72.2441 124.369 75.6955 124.017L83.8265 123.139V122.436C83.8265 121.147 83.3 120.151 82.2471 119.565C81.1942 118.979 79.6732 118.627 77.6258 118.627C76.0464 118.627 74.5255 118.803 73.0631 119.155C71.5422 119.506 70.2552 119.975 69.0268 120.444C68.5588 120.092 68.0909 119.623 67.7984 118.92C67.4474 118.217 67.2719 117.514 67.2719 116.752C67.2719 114.936 68.2078 113.647 70.0797 112.886C71.2497 112.417 72.6536 112.124 74.233 111.89C75.8124 111.714 77.3919 111.597 78.9128 111.597ZM79.2638 136.087C80.1412 136.087 81.0772 135.969 81.9546 135.794C82.8321 135.618 83.4755 135.384 83.9435 135.091V129.466L78.9128 129.876C77.6259 129.993 76.5729 130.286 75.754 130.755C74.935 131.224 74.584 131.927 74.584 132.864C74.584 133.86 74.935 134.622 75.6955 135.208C76.3974 135.794 77.5674 136.087 79.2638 136.087Z" fill="white"/>
<path d="M103.891 142.472C102.077 142.472 100.732 142.179 99.9131 141.594C99.0941 141.008 98.7432 139.836 98.7432 138.137V102.105C99.1526 101.988 99.7376 101.871 100.498 101.753C101.259 101.636 102.077 101.578 102.955 101.578C104.768 101.578 106.055 101.871 106.874 102.515C107.693 103.101 108.103 104.273 108.103 106.03V142.062C107.635 142.179 107.05 142.297 106.348 142.414C105.646 142.414 104.827 142.472 103.891 142.472Z" fill="white"/>
<path d="M113.718 104.039C113.718 102.632 114.186 101.461 115.18 100.465C116.116 99.4687 117.403 99 118.924 99C120.503 99 121.732 99.4687 122.668 100.465C123.604 101.461 124.13 102.632 124.13 104.039C124.13 105.445 123.662 106.675 122.668 107.671C121.732 108.667 120.445 109.136 118.924 109.136C117.345 109.136 116.116 108.667 115.18 107.671C114.186 106.675 113.718 105.503 113.718 104.039ZM123.604 142.004C123.194 142.121 122.609 142.238 121.907 142.355C121.147 142.473 120.328 142.531 119.45 142.531C117.637 142.531 116.292 142.238 115.473 141.652C114.654 141.067 114.303 139.895 114.303 138.196V112.885C114.712 112.768 115.297 112.651 115.999 112.534C116.76 112.417 117.579 112.358 118.456 112.358C120.269 112.358 121.615 112.651 122.434 113.296C123.253 113.881 123.604 115.053 123.604 116.811V142.004Z" fill="white"/>
<path d="M141.212 111.597C143.317 111.597 145.248 111.831 147.003 112.241C148.758 112.651 150.22 113.354 151.449 114.233C152.677 115.112 153.613 116.284 154.315 117.69C155.017 119.096 155.309 120.736 155.309 122.611V136.497C155.309 137.551 155.017 138.43 154.49 139.016C153.964 139.661 153.262 140.188 152.501 140.657C151.215 141.418 149.694 142.004 147.822 142.414C146.008 142.824 143.902 143 141.563 143C137.351 143 134.016 142.18 131.501 140.598C128.986 138.957 127.757 136.497 127.757 133.216C127.757 130.404 128.576 128.236 130.273 126.771C131.969 125.306 134.543 124.369 137.994 124.017L146.125 123.139V122.436C146.125 121.147 145.599 120.151 144.546 119.565C143.493 118.979 141.972 118.627 139.925 118.627C138.345 118.627 136.824 118.803 135.362 119.155C133.841 119.506 132.554 119.975 131.326 120.444C130.858 120.092 130.39 119.623 130.097 118.92C129.746 118.217 129.571 117.514 129.571 116.752C129.571 114.936 130.507 113.647 132.379 112.886C133.549 112.417 134.952 112.124 136.532 111.89C138.17 111.714 139.691 111.597 141.212 111.597ZM141.621 136.087C142.499 136.087 143.434 135.969 144.312 135.794C145.189 135.618 145.833 135.384 146.301 135.091V129.466L141.27 129.876C139.983 129.993 138.93 130.286 138.111 130.755C137.292 131.224 136.941 131.927 136.941 132.864C136.941 133.86 137.292 134.622 138.053 135.208C138.696 135.794 139.925 136.087 141.621 136.087Z" fill="white"/>
<path d="M205.324 142.004C204.856 142.121 204.271 142.238 203.569 142.356C202.808 142.473 201.989 142.531 201.112 142.531C199.299 142.531 197.953 142.238 197.134 141.653C196.315 141.067 195.964 139.895 195.964 138.196V122.963C195.964 121.615 195.613 120.619 194.853 119.975C194.092 119.33 193.098 119.037 191.87 119.037C191.051 119.037 190.29 119.155 189.588 119.448C188.886 119.74 188.243 120.092 187.658 120.561C187.716 120.795 187.716 120.971 187.775 121.147C187.775 121.381 187.833 121.557 187.833 121.732V142.004C187.365 142.121 186.78 142.238 186.078 142.356C185.318 142.473 184.499 142.531 183.621 142.531C181.808 142.531 180.463 142.238 179.644 141.653C178.825 141.067 178.474 139.895 178.474 138.196V122.963C178.474 121.615 178.064 120.619 177.245 119.975C176.426 119.33 175.432 119.037 174.262 119.037C173.385 119.037 172.624 119.155 171.922 119.448C171.22 119.74 170.635 119.975 170.226 120.209V142.063C169.816 142.18 169.231 142.297 168.529 142.414C167.769 142.531 166.95 142.59 166.072 142.59C164.259 142.59 162.914 142.297 162.095 141.711C161.276 141.125 160.866 139.954 160.866 138.254V119.272C160.866 118.217 161.1 117.338 161.568 116.694C162.036 116.049 162.68 115.405 163.44 114.878C164.785 113.94 166.482 113.179 168.412 112.593C170.401 112.007 172.449 111.714 174.613 111.714C176.309 111.714 177.947 111.948 179.468 112.417C180.989 112.886 182.393 113.589 183.68 114.585C184.908 113.764 186.312 113.061 187.833 112.534C189.413 112.007 191.226 111.714 193.332 111.714C194.911 111.714 196.432 111.89 197.895 112.3C199.357 112.71 200.644 113.296 201.697 114.175C202.808 115.053 203.686 116.225 204.388 117.631C205.09 119.037 205.382 120.736 205.382 122.729V142.004H205.324Z" fill="white"/>
<path d="M218.837 131.165C219.422 132.864 220.416 134.095 221.82 134.798C223.224 135.501 224.92 135.852 226.792 135.852C228.489 135.852 230.127 135.618 231.647 135.149C233.168 134.681 234.397 134.153 235.333 133.567C235.918 133.977 236.444 134.505 236.854 135.149C237.263 135.794 237.439 136.497 237.439 137.317C237.439 138.254 237.146 139.075 236.561 139.778C235.976 140.481 235.216 141.067 234.221 141.535C233.227 142.004 232.057 142.356 230.653 142.59C229.308 142.824 227.787 142.941 226.149 142.941C223.75 142.941 221.527 142.59 219.48 141.945C217.433 141.242 215.678 140.246 214.215 138.957C212.753 137.61 211.583 135.969 210.764 133.977C209.945 131.985 209.536 129.642 209.536 126.888C209.536 124.252 209.945 122.025 210.764 120.092C211.583 118.159 212.753 116.577 214.157 115.288C215.561 113.999 217.199 113.061 219.012 112.476C220.826 111.89 222.697 111.597 224.628 111.597C226.734 111.597 228.606 111.89 230.36 112.534C232.115 113.179 233.578 114.057 234.806 115.229C236.035 116.401 237.029 117.748 237.731 119.33C238.433 120.912 238.784 122.67 238.784 124.545C238.784 125.834 238.433 126.83 237.731 127.474C237.029 128.119 236.035 128.587 234.806 128.763L218.837 131.165ZM224.628 118.569C222.873 118.569 221.41 119.096 220.241 120.209C219.071 121.322 218.369 122.846 218.193 124.896L229.893 123.021C229.834 121.967 229.366 120.971 228.489 120.033C227.67 119.037 226.383 118.569 224.628 118.569Z" fill="white"/>
<path d="M256.86 111.596C257.796 111.596 258.673 111.655 259.551 111.831C260.37 111.948 261.13 112.182 261.832 112.417V102.105C262.3 101.988 262.885 101.871 263.587 101.753C264.289 101.636 265.166 101.578 266.044 101.578C267.857 101.578 269.203 101.871 270.021 102.515C270.84 103.16 271.191 104.273 271.191 106.03V135.91C271.191 136.906 271.016 137.727 270.606 138.371C270.197 139.074 269.554 139.66 268.618 140.246C267.448 140.949 265.985 141.594 264.23 142.121C262.417 142.707 260.369 143 258.03 143C252.882 143 248.846 141.711 245.862 139.074C242.879 136.496 241.417 132.571 241.417 127.357C241.417 124.661 241.826 122.318 242.586 120.385C243.405 118.393 244.458 116.811 245.862 115.463C247.266 114.174 248.904 113.178 250.776 112.534C252.648 111.948 254.695 111.596 256.86 111.596ZM261.832 119.916C261.305 119.681 260.72 119.447 260.077 119.271C259.434 119.096 258.79 118.978 258.088 118.978C255.865 118.978 254.11 119.681 252.823 121.029C251.536 122.377 250.834 124.544 250.834 127.474C250.834 130.286 251.478 132.337 252.706 133.626C253.935 134.914 255.69 135.559 257.913 135.559C258.79 135.559 259.551 135.442 260.194 135.266C260.896 135.09 261.422 134.856 261.832 134.622V119.916Z" fill="white"/>
</svg>
